<svg xmlns="http://www.w3.org/2000/svg" width="93.013" height="107.014" viewBox="0 0 93.013 107.014"><defs><style>.a{fill:none;stroke:#0ca6e4;stroke-linecap:round;stroke-linejoin:round;stroke-width:2.5px;}</style></defs><g transform="translate(1580.879 -1644.682)"><path class="a" d="M-1490.9,1651.259l9.24-5.327,9.228,5.327-9.228,5.335Z" transform="translate(-52.715 0)"/><path class="a" d="M-1548.269,1665.7l9.281,5.358-22.171,12.748,22.1,12.764-9.066,5.367-31.5-18.131Z" transform="translate(0 -11.742)"/><path class="a" d="M-1579.629,1710.3v52.257l31.5,18.216V1770l-22.27-12.776v-30.885l22.271,12.859v-10.771Z" transform="translate(0 -38.242)"/><path class="a" d="M-1402.749,1710.3v52.257l-31.5,18.216V1770l22.27-12.776v-30.885l-22.271,12.859v-10.771Z" transform="translate(-86.367 -38.242)"/><path class="a" d="M-1534.126,1691.644l9.274,5.356,12.9-7.446V1678.9Z" transform="translate(-27.033 -19.584)"/><path class="a" d="M-1447.477,1665.7l-9.281,5.358,22.17,12.748-22.1,12.764,9.067,5.367,31.5-18.131Z" transform="translate(-72.997 -11.742)"/><path class="a" d="M-1434.588,1691.644l-9.274,5.356-12.9-7.446V1678.9Z" transform="translate(-72.997 -19.584)"/><path class="a" d="M-1490.9,1659.055v5.383l4.626,2.67v5.288l4.616,2.665v-10.671Z" transform="translate(-52.713 -7.797)"/><path class="a" d="M-1458.892,1659.055v5.383l-4.624,2.67v5.288l-4.617,2.665v-10.671Z" transform="translate(-66.239 -7.797)"/><path class="a" d="M-1481.663,1748.41l-9.24,5.327,9.24,5.334,9.24-5.334Z" transform="translate(-52.712 -60.882)"/><path class="a" d="M-1490.9,1761.533v10.672l9.24,5.333v-10.671Z" transform="translate(-52.712 -68.678)"/><path class="a" d="M-1468.138,1766.867v10.671l9.24-5.331v-10.674Z" transform="translate(-66.236 -68.678)"/><path class="a" d="M-1547.6,1812.721l-9.276,5.355,22.27,12.776,9.065-5.368Z" transform="translate(-13.516 -99.089)"/><path class="a" d="M-1434.54,1812.721l-22.058,12.763,9.071,5.368,22.27-12.776Z" transform="translate(-73.092 -99.089)"/><path class="a" d="M-1456.6,1844.164v5.42l4.549,2.622v5.489l4.522,2.607v-10.77Z" transform="translate(-73.092 -117.769)"/><path class="a" d="M-1502.012,1849.532v10.77l4.535-2.617v-5.492l4.53-2.615v-5.414Z" transform="translate(-46.112 -117.769)"/><path class="a" d="M-1481.632,1850.853l-9.206,5.314,9.206,5.347,9.24-5.334Z" transform="translate(-52.75 -121.743)"/><path class="a" d="M-1481.632,1869.291l-9.206-5.347v10.7l9.215,5.32Z" transform="translate(-52.75 -129.521)"/><path class="a" d="M-1468.157,1869.31l.009,10.675,9.232-5.319v-10.69Z" transform="translate(-66.225 -129.54)"/><path class="a" d="M-1456.606,1741.748l-.013,5.4,4.565,2.633v5.51l4.514,2.6v-10.771Z" transform="translate(-73.08 -56.924)"/><path class="a" d="M-1502.012,1747.115v10.771l4.508-2.6v-5.506l4.556-2.627v-5.4Z" transform="translate(-46.112 -56.924)"/><path class="a" d="M-1402.252,1755.183l0,20.172,9.282,5.355v-30.885Z" transform="translate(-105.378 -61.722)"/><path class="a" d="M-1547.6,1755.181l-9.276-5.356v30.885l9.276-5.355Z" transform="translate(-13.516 -61.722)"/></g></svg>