<svg xmlns="http://www.w3.org/2000/svg" width="101" height="111.566" viewBox="0 0 101 111.566"><defs><style>.a{fill:none;stroke:#0ca6e4;stroke-linecap:round;stroke-linejoin:round;stroke-width:3px;}</style></defs><g transform="translate(-34.77 -96.918)"><path class="a" d="M59.286,101.967l4.454,7.716-17.82,30.861-4.452-7.712Z" transform="translate(21.533 12.432)"/><path class="a" d="M38.869,106.467h8.909l17.815,30.863H56.688Z" transform="translate(10.768 31.077)"/><path class="a" d="M39.734,120.182l4.456-7.716,35.636,0-4.454,7.711Z" transform="translate(14.354 55.938)"/><path class="a" d="M50.25,148.043,45.8,140.327l17.82-30.861,4.453,7.712Z" transform="translate(39.473 43.508)"/><path class="a" d="M74.255,137.331H65.345L47.528,106.467h8.905Z" transform="translate(46.65 31.077)"/><path class="a" d="M84.157,104.967,79.7,112.682l-35.638,0,4.454-7.712Z" transform="translate(32.295 24.865)"/><path class="a" d="M44.932,98.967H53.84L67.2,122.125H58.288L44.932,98.967" transform="translate(35.89 0)"/><path class="a" d="M40.726,103.467l26.733.01-4.454,7.716-26.734-.012Z" transform="translate(0.002 18.646)"/><path class="a" d="M49.646,109.467,54.1,117.18,40.722,140.327l-4.451-7.715Z" transform="translate(0 43.508)"/><path class="a" d="M42.333,115.465h8.908L64.6,138.623l-8.907,0Z" transform="translate(25.123 68.361)"/><path class="a" d="M53.711,113.965l26.736.013-4.455,7.712-26.733-.011Z" transform="translate(53.822 62.148)"/><path class="a" d="M65.236,103.467l4.451,7.715L56.312,134.329l-4.455-7.715Z" transform="translate(64.583 18.649)"/><path class="a" d="M76.238,122.115h-8.91L62.874,114.4,45.055,145.263,40.6,137.544,62.876,98.967Z" transform="translate(17.945 0)"/><path class="a" d="M63,104.968l-4.455,7.716H49.635l17.818,30.864H58.542l-22.271-38.58Z" transform="translate(0.002 24.86)"/><path class="a" d="M50.5,110.966l4.455,7.718L50.5,126.4H86.141l-4.458,7.716H37.136Z" transform="translate(3.586 49.723)"/><path class="a" d="M44.064,134.114h8.91l4.454,7.715,17.819-30.863,4.454,7.719L57.427,157.262Z" transform="translate(32.295 49.722)"/><path class="a" d="M53.717,145.046l4.454-7.716h8.908L49.26,106.467h8.911l22.272,38.582Z" transform="translate(53.826 31.077)"/><path class="a" d="M80.568,126.615,76.113,118.9l4.454-7.712H44.93l4.456-7.717,44.549,0Z" transform="translate(35.884 18.647)"/></g></svg>