<svg xmlns="http://www.w3.org/2000/svg" width="26.359" height="32.884" viewBox="0 0 26.359 32.884"><defs><style>.a{stroke:#000;stroke-width:1.5px;}</style></defs><g transform="translate(-127.74 0.75)"><path class="a" d="M386.124,252.84a4.8,4.8,0,1,0,4.8,4.8,4.8,4.8,0,0,0-4.8-4.8Zm0,7.672A2.877,2.877,0,1,1,389,257.635a2.877,2.877,0,0,1-2.877,2.877Z" transform="translate(-245.167 -245.168)"/><path class="a" d="M140.958,0A12.487,12.487,0,0,0,128.49,12.468a21.428,21.428,0,0,0,.269,2.494c1.745,5.62,11.125,15.057,11.509,15.441l.671.671.671-.671c.4-.4,9.782-9.821,11.509-15.594,0-.173.23-1.63.23-2.34A12.487,12.487,0,0,0,140.958,0Zm10.377,14.386c-1.362,4.354-8.19,11.7-10.377,13.964-2.187-2.283-9.015-9.59-10.339-13.81-.058-.4-.211-1.592-.211-2.072a10.549,10.549,0,0,1,21.1,0c0,.48-.153,1.669-.173,1.918Z"/></g></svg>