<svg xmlns="http://www.w3.org/2000/svg" width="300" height="75.195" viewBox="0 0 300 75.195"><defs><style>.a{fill:#fff;}.b{fill:#100e0b;stroke:#fff;opacity:0.401;}</style></defs><g transform="translate(0.064 27.05)"><rect class="a" width="4.187" height="18.315" transform="translate(0 0)"/><path class="a" d="M229.233,129.924V111.61h2.852L244.761,122.4q.662.542,1.142,1.015a10.6,10.6,0,0,1,.909.979c-.066-1.026-.111-1.756-.135-2.185s-.031-.753-.031-.984V111.61h3.765v18.314h-2.86l-13.228-11.313q-.471-.436-.827-.782a9.382,9.382,0,0,1-.669-.71c.055.567.1,1.1.127,1.6s.045.939.045,1.306v9.9Z" transform="translate(-215.856 -111.61)"/><path class="a" d="M290.579,126.482H296q4.334,0,6.141-1.371c1.2-.912,1.805-2.423,1.805-4.527a5.647,5.647,0,0,0-1.507-4.261A6.145,6.145,0,0,0,298,114.877h-7.424Zm-4.19,3.442V111.61h11.583c3.306,0,5.856.785,7.628,2.357a8.461,8.461,0,0,1,2.663,6.687,10.05,10.05,0,0,1-1.035,4.622,7.991,7.991,0,0,1-2.935,3.23,8.389,8.389,0,0,1-2.921,1.077,23.906,23.906,0,0,1-4.473.341Z" transform="translate(-242.659 -111.61)"/><rect class="a" width="4.177" height="18.315" transform="translate(73.272 0)"/><path class="a" d="M383.824,114.877H370.734v11.606h13.089V122.4h-6.842v-3.119h10.925v6.32q0,2.508-.933,3.418c-.61.609-1.8.91-3.549.91H371.01c-1.748,0-2.936-.3-3.545-.91s-.916-1.747-.916-3.418v-9.661c0-1.656.3-2.8.916-3.41s1.8-.915,3.545-.915h12.415c1.733,0,2.918.3,3.542.9a4.435,4.435,0,0,1,.939,3.254v1.174l-4.083-.007Z" transform="translate(-280.249 -111.61)"/><path class="a" d="M422.7,115.932a4.828,4.828,0,0,1,.92-3.407c.62-.609,1.794-.915,3.539-.915h13.261q2.624,0,3.554.915t.918,3.407V125.6q0,2.506-.918,3.415c-.62.609-1.8.91-3.554.91H427.162c-1.745,0-2.919-.3-3.539-.91s-.92-1.745-.92-3.415Zm4.188,10.55h13.819V114.877H426.891Z" transform="translate(-306.582 -111.61)"/></g><g transform="translate(0 50.474)"><path class="a" d="M210.392,158.816v-.52a.857.857,0,0,0-.3-.731,3.418,3.418,0,0,0-1.7-.248H208.1a6.741,6.741,0,0,0-1.17.081,1.263,1.263,0,0,0-.632.265,1.715,1.715,0,0,0-.432,1.384v2.181q0,1.247.507,1.527a1.785,1.785,0,0,0,.715.242,9.461,9.461,0,0,0,1.131.048c.583,0,.962-.009,1.17-.018a1.734,1.734,0,0,0,.782-.3.522.522,0,0,0,.187-.242,1.173,1.173,0,0,0,.089-.3,2.655,2.655,0,0,0,.027-.389c.015-.157.028-.294.033-.433h1.94v.723a2.069,2.069,0,0,1-.766,1.78,4.237,4.237,0,0,1-2.005.494c-.322.02-.715.033-1.176.041s-.732.024-.809.024a4.771,4.771,0,0,1-2.943-.679,1.845,1.845,0,0,1-.571-.805,4.014,4.014,0,0,1-.215-1.066c-.034-.387-.042-.929-.042-1.634s.008-1.252.042-1.611a3.631,3.631,0,0,1,.189-1.005,2.432,2.432,0,0,1,.52-.832,2.2,2.2,0,0,1,.944-.537,6.086,6.086,0,0,1,1.23-.248c.433-.037.9-.056,1.411-.056.562,0,1.031.009,1.395.024a7.049,7.049,0,0,1,1.044.137,2.333,2.333,0,0,1,.84.361,1.631,1.631,0,0,1,.547.677,2.553,2.553,0,0,1,.2.783,7.06,7.06,0,0,1,.046.877Z" transform="translate(-203.922 -155.957)"/><path class="a" d="M236.627,157.317a7.192,7.192,0,0,0-1.465.113.948.948,0,0,0-.689.435,2.72,2.72,0,0,0-.257,1.107.946.946,0,0,1,.027.253v1.982a2.5,2.5,0,0,0,.285,1.4,1.05,1.05,0,0,0,.69.361,11.229,11.229,0,0,0,1.369.089,7.38,7.38,0,0,0,1.356-.108,1.372,1.372,0,0,0,.71-.342,1.4,1.4,0,0,0,.252-.525,2.738,2.738,0,0,0,.1-.738v-2.513a1.509,1.509,0,0,0-.347-1.125,1.954,1.954,0,0,0-1.059-.368C237.294,157.328,236.968,157.317,236.627,157.317Zm-.035-1.36c.54,0,1.027.02,1.49.054a6.248,6.248,0,0,1,1.319.24,1.876,1.876,0,0,1,.927.572,2.251,2.251,0,0,1,.407.637,3.617,3.617,0,0,1,.23,1.447v2.681a2.9,2.9,0,0,1-.176,1.166,2.544,2.544,0,0,1-.488.788,2.08,2.08,0,0,1-1,.59,6.194,6.194,0,0,1-1.32.235c-.463.026-1.015.039-1.647.039a11.891,11.891,0,0,1-1.966-.133,2.587,2.587,0,0,1-1.3-.587,2.9,2.9,0,0,1-.778-2.338v-2.278a5.783,5.783,0,0,1,.123-1.282,2.129,2.129,0,0,1,.466-.99,2.011,2.011,0,0,1,.954-.561A5.5,5.5,0,0,1,235.1,156C235.535,155.977,236.033,155.957,236.592,155.957Z" transform="translate(-217.224 -155.957)"/><path class="a" d="M261.741,156.08H265l4.389,6.953h.05l-.163-6.953h1.986V164.4h-3.284l-4.335-6.955h-.086l.112,3.449.049,3.506h-1.974Z" transform="translate(-231.036 -156.014)"/><path class="a" d="M296.467,155.957c.9,0,1.555.02,1.947.046a3.121,3.121,0,0,1,1.43.431,1.453,1.453,0,0,1,.651.825,4.025,4.025,0,0,1,.149,1.219h-1.976v-.339a.8.8,0,0,0-.2-.64,2.114,2.114,0,0,0-1.223-.218h-.811a3.306,3.306,0,0,0-1.5.218.564.564,0,0,0-.256.3,1.246,1.246,0,0,0-.091.546,2.746,2.746,0,0,0,.1.6.466.466,0,0,0,.3.285,1.942,1.942,0,0,0,.5.137,6.678,6.678,0,0,0,.691.067c.262.015.517.03.755.041.813.044,1.484.1,2.013.157a3.106,3.106,0,0,1,1.2.353,1.349,1.349,0,0,1,.406.4,1.661,1.661,0,0,1,.217.488,3.783,3.783,0,0,1,.067.438c.009.124.027.335.037.622a3.015,3.015,0,0,1-.241,1.229,1.768,1.768,0,0,1-.7.811,6.543,6.543,0,0,1-2.94.433h-.742a13.286,13.286,0,0,1-1.677-.085,2.607,2.607,0,0,1-1.217-.438,1.648,1.648,0,0,1-.537-.587,1.954,1.954,0,0,1-.2-.677c-.022-.235-.046-.542-.046-.914h1.968a.815.815,0,0,1-.036.227,2.727,2.727,0,0,0,.081.589.56.56,0,0,0,.233.322,1.175,1.175,0,0,0,.521.2,7.232,7.232,0,0,0,.927.07,2.316,2.316,0,0,1,.422.026c.5-.024.871-.039,1.12-.061a1.891,1.891,0,0,0,.633-.166c.3-.146.448-.5.448-1.036a1.072,1.072,0,0,0-.28-.825.879.879,0,0,0-.267-.129,1.811,1.811,0,0,0-.325-.072c-.113-.011-.258-.02-.426-.031s-.353-.019-.565-.026c-.365-.015-.7-.026-1.031-.041s-.628-.028-.916-.058a5.929,5.929,0,0,1-.869-.15,2.392,2.392,0,0,1-.705-.3,2.047,2.047,0,0,1-.867-1.817,2.25,2.25,0,0,1,.775-1.95A6.2,6.2,0,0,1,296.467,155.957Z" transform="translate(-245.492 -155.957)"/><path class="a" d="M325.283,163.1a2.676,2.676,0,0,1,.353.017,8.6,8.6,0,0,0,1.1-.072,1.48,1.48,0,0,0,.637-.235.585.585,0,0,0,.276-.348,2.311,2.311,0,0,0,.07-.638V156.08h1.955v5.961a2.108,2.108,0,0,1-.9,1.9,3.263,3.263,0,0,1-1.451.438c-.6.061-1.342.085-2.2.085-.624,0-1.172-.022-1.617-.067a4.385,4.385,0,0,1-1.238-.318,1.856,1.856,0,0,1-.84-.829,2.873,2.873,0,0,1-.267-1.26V156.08h1.972v6.046a.956.956,0,0,0,.081.455.742.742,0,0,0,.322.281,1.762,1.762,0,0,0,.668.2A10.74,10.74,0,0,0,325.283,163.1Z" transform="translate(-258.9 -156.015)"/><path class="a" d="M350.95,156.08h1.971v6.953h4.8V164.4H350.95Z" transform="translate(-272.87 -156.014)"/><path class="a" d="M375.369,164.4v-6.955h-2.99V156.08h7.955v1.367h-3V164.4Z" transform="translate(-282.919 -156.014)"/><rect class="a" width="1.974" height="8.322" transform="translate(103.88 0.065)"/><path class="a" d="M417.072,156.08h3.257l4.391,6.953h.055l-.173-6.953h1.978V164.4H423.3l-4.335-6.955h-.081l.109,3.449.058,3.506h-1.978Z" transform="translate(-303.878 -156.014)"/><path class="a" d="M456.848,161.547a4.693,4.693,0,0,1-.173,1.382,1.525,1.525,0,0,1-.713.943,4.582,4.582,0,0,1-1.955.494q-.529.042-1.587.041c-.569,0-1.046-.013-1.45-.037a5.971,5.971,0,0,1-1.18-.189,2.528,2.528,0,0,1-.954-.453,2.678,2.678,0,0,1-.913-2.359V159.3a6.4,6.4,0,0,1,.094-1.175,2.793,2.793,0,0,1,.291-.834,2.028,2.028,0,0,1,.5-.583,2.707,2.707,0,0,1,.971-.5,6.37,6.37,0,0,1,1.211-.2c.421-.026.9-.046,1.428-.046h.742a13.558,13.558,0,0,1,1.643.08,2.781,2.781,0,0,1,1.157.4,2.014,2.014,0,0,1,.862,1.841v.27h-1.957a1.1,1.1,0,0,0-.365-.955,1.633,1.633,0,0,0-.683-.222c-.3-.028-.728-.05-1.262-.05a11.423,11.423,0,0,0-1.487.072,1.719,1.719,0,0,0-.75.257c-.28.222-.422.733-.422,1.515v2a2.16,2.16,0,0,0,.394,1.541,2.066,2.066,0,0,0,1.007.327c.259.008.638.018,1.144.018.31,0,.548.006.7.017a4.426,4.426,0,0,0,.8-.076,1.655,1.655,0,0,0,.557-.254.8.8,0,0,0,.3-.509,4.235,4.235,0,0,0,.062-.853v-.228h-2.573v-1.215h4.554Z" transform="translate(-318.345 -155.957)"/></g><path class="a" d="M502.379,118.06l-3.108.64a12.607,12.607,0,0,1-1.123,7.291l2.676,1.557A7.861,7.861,0,0,1,506,124.225l-.126-3.279A4.375,4.375,0,0,1,502.379,118.06Zm-3.405-.8,3.146-.642A4.348,4.348,0,1,1,507.3,120.9l.127,3.221a8.017,8.017,0,1,1-8.027,8.013,8.085,8.085,0,0,1,.716-3.323l-2.7-1.556a11.973,11.973,0,0,1-10.061,5.521,12.26,12.26,0,1,1,11.612-15.515Z" transform="translate(-332.174 -83.039)"/><line class="b" y2="68.724" transform="translate(203.044 6.471)"/><g transform="translate(224.237 0)"><g transform="translate(0.011 47.783)"><path class="a" d="M638.617,154.324c0-1.293-.638-2.834-3.681-2.834h-5.363v9.275h1.867v-3.594h3.5C637.978,157.171,638.617,155.623,638.617,154.324Zm-7.177-1.084h3.229c1.965,0,2.128.519,2.128,1.1s-.163,1.084-2.128,1.084H631.44Z" transform="translate(-629.573 -151.281)"/><path class="a" d="M659.832,156.876V151.49h-1.866v5.386c0,1.611-.947,2.395-2.894,2.395s-2.893-.783-2.893-2.395V151.49h-1.867v5.386c0,2.643,1.69,4.1,4.76,4.1S659.832,159.519,659.832,156.876Z" transform="translate(-639.298 -151.281)"/><path class="a" d="M682.7,157.977a2.4,2.4,0,0,0-1.125-2.105,2.059,2.059,0,0,0,.835-1.756c0-2.626-2.779-2.626-3.693-2.626h-5.3v9.275h4.737C679.623,160.765,682.7,160.765,682.7,157.977Zm-4.609-4.784c1.84,0,2.453.135,2.453.934,0,.262,0,.957-2.1.957h-3.16v-1.891Zm.719,5.822h-3.531v-2.227h3.647c1.885,0,1.885.809,1.885,1.154C680.807,158.586,680.467,159.016,678.807,159.016Z" transform="translate(-650.13 -151.281)"/><path class="a" d="M704.261,159.015h-6.39V151.49H696v9.276h8.257Z" transform="translate(-660.725 -151.281)"/><rect class="a" width="1.866" height="9.276" transform="translate(45.365 0.209)"/><path class="a" d="M732.836,158.114l.2-.384-1.658-.808-.194.356a3.276,3.276,0,0,1-3.152,1.761c-2.153,0-3.439-1.1-3.439-2.951,0-2.151,1.157-3.288,3.345-3.288a3.041,3.041,0,0,1,3.125,1.7l.172.4,1.653-.762-.167-.38a4.94,4.94,0,0,0-4.793-2.665c-3.222,0-5.223,1.864-5.223,4.864,0,2.334,1.375,4.829,5.235,4.829C730.3,160.789,731.906,159.914,732.836,158.114Z" transform="translate(-673.246 -151.096)"/><rect class="a" width="1.866" height="9.276" transform="translate(61.943 0.209)"/><path class="a" d="M759.008,154.9c-1.713-.157-2.752-.3-2.752-1.016,0-.944,1.544-1.084,2.464-1.084a3.578,3.578,0,0,1,3.08,1.262l.327.372,1.365-1.11-.231-.323a5.3,5.3,0,0,0-4.518-1.9c-3.809,0-4.377,1.849-4.377,2.951,0,2.218,2.47,2.457,4.455,2.649,1.749.169,2.9.336,2.9,1.085,0,1.223-2.379,1.258-2.65,1.258-2.328,0-3.027-.931-3.488-1.547l-.271-.36-1.13.965-.321.291.289.323a5.62,5.62,0,0,0,4.806,2.079c2.148,0,4.655-.788,4.655-3.008C763.607,155.319,761.057,155.087,759.008,154.9Z" transform="translate(-687.855 -151.096)"/><path class="a" d="M641.139,187.279h3.339a2.743,2.743,0,0,1-2.811,1.647c-2.124,0-3.393-1.1-3.393-2.952a2.945,2.945,0,0,1,3.3-3.287,3.11,3.11,0,0,1,2.964,1.66l.182.417,1.61-.849-.16-.361a4.72,4.72,0,0,0-4.561-2.571c-3.222,0-5.223,1.863-5.223,4.864,0,2.335,1.375,4.829,5.235,4.829a4.888,4.888,0,0,0,2.963-.824v.685h1.75v-5.009h-5.194Z" transform="translate(-632.767 -165.111)"/><path class="a" d="M670.042,184.153c0-1.267-.649-2.777-3.739-2.777h-5.294v9.276h1.867v-3.734h2.678l2.713,3.734h2.319l-2.857-3.856A2.657,2.657,0,0,0,670.042,184.153Zm-7.166-1.026h3.195c1.8,0,2.151.372,2.151,1.015,0,.666-.343,1.027-2.151,1.027h-3.195Z" transform="translate(-644.315 -165.296)"/><path class="a" d="M686.936,180.983c-3.208,0-5.363,1.969-5.363,4.9,0,3.294,2.78,4.794,5.363,4.794s5.363-1.5,5.363-4.794C692.3,182.952,690.144,180.983,686.936,180.983Zm0,7.943a3.147,3.147,0,0,1-3.473-3.23c0-1.772,1.428-3.009,3.473-3.009s3.473,1.237,3.473,3.009A3.147,3.147,0,0,1,686.936,188.926Z" transform="translate(-653.958 -165.111)"/><path class="a" d="M713.284,186.762c0,1.612-.946,2.4-2.893,2.4s-2.894-.783-2.894-2.4v-5.386h-1.866v5.386c0,2.643,1.69,4.1,4.76,4.1s4.76-1.456,4.76-4.1v-5.386h-1.867Z" transform="translate(-665.24 -165.296)"/><path class="a" d="M733.611,181.376h-5.363v9.276h1.866v-3.595h3.5c3.042,0,3.681-1.548,3.681-2.846S736.653,181.376,733.611,181.376Zm-3.5,1.75h3.23c1.965,0,2.128.518,2.128,1.1s-.163,1.084-2.128,1.084h-3.23Z" transform="translate(-675.846 -165.296)"/><path class="a" d="M750.634,186.721h5.427v-1.75h-5.427v-1.844h6.494v-1.75h-8.36v9.276h8.5V188.9h-6.633Z" transform="translate(-685.469 -165.296)"/></g><path class="a" d="M692.184,112.466l-5.559-3.284a4.2,4.2,0,0,0,2.99-1l1.692,2.067-1.035-2.562c1.125-.882,2.044-1.832,3.2-1.859,3.136-.077.939,3.688,2.086,3.7,1.282.011,2.671-4.194-.4-6.04-3.181-1.926-5.961.854-8.212.382l8.436-3.767H683.051l-.438-.826A4.074,4.074,0,0,0,687.5,98.3L691,98.8l-2.9-1.134c.693-.724,1.278-1.288,2.011-1.007,1.04.4,1.65,1.313,3.458,1.332,3.051.035,5.271-5.388,1.239-7.742.306,3.867-1.494,4.059-4.619,2.006l1.072-1.749-1.6,1.408c-3-1.336-4.466,1.319-5.729,2.18s-2.422-.861-3.958,1.182c2.29-.754,3.458,1.435,4.963,0-.625,3.879-2.852-1.182-5.072.754,1.924.144,2.93,1.867,4.461,1.867,2.824,0,.307-5.433,4.283-5.433l-.66-.424c2.255-.211,2.369,2.042,5.767,2.083.352.511-.888.552-1.759.254-.142.723,4.613,2.341,3.47-3.064,1.5.812,1.171,4.211-.231,5.5-.272.25-.526.374-.695.113-.384-.578.6-.568.877-1.443a3.144,3.144,0,0,1-4.117-.3c-1.236-1.151-3.092-2.552-3.887-.129s-1.456,3.55-2.916,3.576c-2.011.033-4.143-3.34-6.374-1.475,4.266.4,5.272,7.177,9.025,7.262,2.916,0,3.574-1.28,5.471-1.28s3.895,1,3.895,3.5a3.626,3.626,0,0,1-.8,2.363,4.95,4.95,0,0,0,.292-2.79,3.037,3.037,0,0,0-3.222-2.4c-2.341,0-4.224,3.836-6.83,3.836-5.213,0-6.554-10.052-12.007-8.505,4.015,2.712,4.455,7.051,6.614,8.716,2.19,1.687,4.8,1,6.242,2.268a4.133,4.133,0,0,1,1.028,2.335h-.5a3.118,3.118,0,0,0-.871-1.319c-1.25-1.314-5-.737-6.729-2.6s-2.986-7.461-6.38-8.32c2.961,1.9,3.619,6.8,5.739,9.2s4.914,1.128,6.2,2.388a8.025,8.025,0,0,1,.593.649h-2.428a4.138,4.138,0,0,0-.7-.067,11.83,11.83,0,0,0-1.189.067h-3.348a2.758,2.758,0,0,1-1.209-.745c-1.681-1.775-1.525-3.641-1.391-5.845.325,2.071.726,6.832,4.284,6.3-4.477-1.529-1.873-9.2-7.345-11.169-.591-.217-.388-2.143,1.1-2.431-2.955.567-2.938-.515-.85-2.687-1.285.819-2.69.582-3,1.511,0,0,2.421,3.8,2.421,4.543a13.768,13.768,0,0,1-1.77,3.835,6.771,6.771,0,0,1-3.036.19,2.605,2.605,0,0,1-.882-2.3c.372-.792,3.369-1.444,3.423-2.618.038-.922-1.209-1.01-1.167-.526.722.242,1.033,1.306-1.086,1.8l.479-.763s-1.569,1.253-1.649,1.306a1.186,1.186,0,0,1-.678.007c-.23-.073-2.5-1.162-2.111-2.239a6.731,6.731,0,0,0,2.4.3c1.725,0,1.88-.747,1.88-.747a7.5,7.5,0,0,1-3.714,0c-.744-.173.045-1.112.307-1.124h1.785c.108,0,.259-.249.015-.264-.179-.005-1.316-.034-1.406-.313-.151-.477-.457-3.463-.457-3.463s.39-.93.064-1.237-.477-.148-.477-.148c.74,4.146-2.439,6.728-4.256,6.229l-.214-.037a5.654,5.654,0,0,0,1.614.816,4.3,4.3,0,0,1-5.318-2.6c-.3.152-.3.957-.266,1.47a2.285,2.285,0,0,1-.485-2.825c-.864.416-.9.55-.9.55.034-.712,1.281-1.177,1.91-2.006a1.672,1.672,0,0,0-.847-2.643,2.373,2.373,0,0,1-1.838,2.584c-1.254.415-1.04-.722-2.2-.469,1.9.433,1.8,3.06,3.7,4.141-2.535-.595-2.972-4.04-6.057-3.7,1.774-2.528,4.58-.357,5.741-2.107-3,.687-5.048-1.848-5.4-4.626-.53-4.253-4.121-2.156-4.062-4.253,1.807.815,5.815-2.284,7,1.245,1.24,3.689,3.74,5.192,5.988,3.487l-9.806-9.949,1.238,4.171c-2.561.505-5.649-1.022-3.973-4.6-2.423-1.126-5.632,2.9-2.671,6.06,1.369,1.455,4.707.919,5.583,3.9l-3.177-.257,3.264.854.973,2.89-7.594-3.744,4.678,5.444c-2.733,1.447-3.411-2.7-6.947-2.607-2.473.059-5.242,2.607-4.091,5.586,3.7-2.242,4.889-.644,6.459.912l-2.28,1.217,2.7-.817a5.032,5.032,0,0,0,4.077,1.5c3.2-.238,6.015-1.269,6.738-.4.558.66-.082,1.053-1.235,1.053H636.885l6.125,3.282c-.592.458-2.3,2.553-3.477,2.553s-3.826-1.814-4.528,1.361c2.723-.465,4.1,5.485,9.829.739l-2.678,4.43h-12.6v1.521h75.676v-1.521ZM689.19,94.475c1.406.6-2.944,4.84-4.279,4.685C687.692,98.335,687.786,93.866,689.19,94.475Zm.571,12.5c.985-2.621,4.07-3.748,5.344-1.455.062.114-.034.2-.258-.018-1.594-1.6-3.64-.08-4.92,1.585C689.744,107.324,689.686,107.175,689.761,106.974ZM645.09,78.9c-.805,1.4-.648,3.958,2.576,4.717C642.263,84.816,642.4,78.684,645.09,78.9Zm-4.373,16.681a4.55,4.55,0,0,0-4.693.259C636.768,93.368,641.371,93.163,640.717,95.579Zm1.091-.979a2.8,2.8,0,0,0-1.1-1.063,4.545,4.545,0,0,0-1.611-.127c-.634.031-1.182.056-1.351-.337-.112-.255.008-.527.338-.768a2.636,2.636,0,0,1,1.333-.434,1.839,1.839,0,0,1,1.366.381c.313.28.441.3.5.277.08-.039.059-.225.052-.35-.013-.092-.028-.164.028-.157a2.8,2.8,0,0,1,1.773,1.242,4.476,4.476,0,0,0,4.779,1.816C647.193,97.615,643.11,96.863,641.808,94.6Zm2.3,3.455c-.152-1.108,5.413-1.928,5.457-.341C649.607,99.1,644.273,99.277,644.109,98.054Zm28.733,6.832c-1.845,3.965,2.7,6.444,3.553,7.235a2.358,2.358,0,0,1,.292.346h-1.534a3.9,3.9,0,0,0-1.467-1.909,8.339,8.339,0,0,1,.89,1.909h-.729C672.788,110.372,671.032,108.771,672.842,104.886Zm-.458,7.58h-.649l-.751-2.164A3.843,3.843,0,0,1,672.384,112.466Zm-1.856,0h-.71a5.356,5.356,0,0,0-.278-3.985C670.726,109.456,670.713,110.972,670.528,112.466Zm-1.261,0h-.635a3.915,3.915,0,0,0-.438-3.341A3.3,3.3,0,0,1,669.267,112.466Zm-4.708,0c.374-1.639-.3-2.138-1.686-3.614,2.077,1.429,2.826,2.414,2.689,3.614Zm1.686-2.875a4.46,4.46,0,0,1,1.351,2.875h-.631A5.684,5.684,0,0,0,666.245,109.591Zm-.11-2.812c.909,0,2.635-.049,2.682-.049.244,0,.293.08.3.123.006.093-.114.551-.3.6a10.429,10.429,0,0,1-5.378,0c-.18-.047-.306-.506-.293-.6.008-.042.053-.123.3-.123C663.449,106.73,665.226,106.779,666.134,106.779Zm-2.627-6.254c-.736.242-.861,1.431,1.277,1.916-.7.1-2.4-.216-2.451-1.39C662.288,100.13,663.535,100.041,663.507,100.526Zm-2.093,2.029a12.972,12.972,0,0,1,4.095,1.115,2.579,2.579,0,0,1-.885,2.3c-.49.146-2.883-.107-3.23-1.126,1.439.387,1.535-.152,1.535-.152a2.284,2.284,0,0,1-1.842-.9,1.635,1.635,0,0,0,1.518-.015s-1.994-.762-2.056-1.219Zm-1.987,2.214.048-.387c.131,4.755,3.588,5.508,3.588,7.873,0,.073-.006.142-.01.212h-.609a1.781,1.781,0,0,0-.375-1.286c-2.252-3-2.348-3.649-2.348-3.649.193,2.278,1.645,2.57,1.994,4.936h-.936C660.433,110.695,658.635,110,659.427,104.768Zm.207,7.7h-1.668l.887-1.427A3.657,3.657,0,0,1,659.633,112.466Zm-2.7,0H655.84c1.636-3.044.723-7.988,2.134-9.509C657,104.721,658.541,108.979,656.932,112.466Zm.447-11.461c-.665.593-3.712,3.264-2.763,10.549.962-1.572.139-7.532,2.979-9.692-1.989,2.423-.934,6.716-2.374,10.6h-1.4C654.221,109.333,652.482,104.625,657.379,101.005Zm-5.605,11.461h-.645a13.247,13.247,0,0,0,1.181-2.308A5.089,5.089,0,0,1,651.773,112.466Zm3.149-12.556c.578.644-3.067,2.3-4.858,1.664C653.064,101.616,654.327,99.26,654.923,99.91Zm-4.159,2.4a5.4,5.4,0,0,0,3.806-1.2c-.2,1.485-1.784,2-3.786,2s-3.851-2.211-5.377-.734c2.683-.314,3.082,2.519,6.112,1.567-2.621,2.819-4.538-2.152-7.552-.714C645.493,99.585,648.709,102.311,650.763,102.311Zm-14.919,4.536c1.564-2.315,2.779.873,5.378-.9.865,1.363-1.256,2.213-2.493,1.455A3.318,3.318,0,0,0,635.844,106.847Zm7.606,1.65c-1.147.888-4.074,1.789-4.031-.126,3.043.589,3.742-3.733,6.452-2.459C645.187,106.039,644.58,107.62,643.451,108.5Zm8.509-.972a9.579,9.579,0,0,1-.613,3.715l-4.4,1.227h-3.918Z" transform="translate(-629.552 -68.735)"/><path class="a" d="M701.79,99.248c-2.12.232-1.786,3.109-.192,3.109s1.828-.742,3.037-.742,1.636.791,2.608.791c.956,0,1.538-.693,1.1-1.3-.627,1.023-1.738-.372-2.554-.372a4.838,4.838,0,0,0-2.6.928c-.916.467-1.791.024-1.449-.514C701.04,101.139,700.586,100.268,701.79,99.248Z" transform="translate(-662.729 -78.549)"/><path class="a" d="M714.364,79.051c-2.052,3.047.665,6.174-3.639,7.254,5.113.052,2.455-4.306,4.321-6.815s3.981-1.581,4.663-4.484C718.634,77.369,715.535,77.3,714.364,79.051Z" transform="translate(-667.618 -67.182)"/><path class="a" d="M705.355,90.679c-1.171-1.15-.645-3.211-.645-3.211S702.865,89.782,705.355,90.679Z" transform="translate(-664.489 -73.025)"/><path class="a" d="M717.327,81.486c-1.643,2.439.25,5.972-3.194,6.995,4.339.108,2.256-4.915,3.823-6.656,1.371-2,2.624-1.656,3.271-3.783C720.311,79.74,718.263,80.09,717.327,81.486Z" transform="translate(-669.216 -68.604)"/><path class="a" d="M726.581,98.322a4.162,4.162,0,0,0-5.715,2.931,27.569,27.569,0,0,0,2.83-2.324C724.671,98.29,726.182,98.679,726.581,98.322Z" transform="translate(-672.373 -77.945)"/><path class="a" d="M715.744,108.119c.258.576,1.325-.707,2.937-.216C717.9,107.375,715.6,107.379,715.744,108.119Z" transform="translate(-669.969 -82.434)"/><path class="a" d="M731.6,95.261c-.757,3.516-7.354.914-7.3,5.921C725.7,98.7,732.173,98.924,731.6,95.261Z" transform="translate(-673.984 -76.68)"/><path class="a" d="M713.467,111.086c.124.751,1.447-.811,3.98.277C716.576,110.1,713.278,109.98,713.467,111.086Z" transform="translate(-668.9 -83.746)"/><path class="a" d="M702.6,85.874c-2.556-4.2,3.435-5.161,1.742-8.624C704.555,79.959,698.8,82.755,702.6,85.874Z" transform="translate(-663.197 -68.233)"/><path class="a" d="M703.079,124.12c-.345.244-1.168.483-1.812.915-.065.112-.175.51-.32.6A2.4,2.4,0,0,0,703.079,124.12Z" transform="translate(-663.032 -90.213)"/><path class="a" d="M686.554,105.814c-1-.2-2.18.8-3.334,1.335,1.084,1.562,3.6,1.687,4.609,2.242C688.055,109.044,688.819,106.264,686.554,105.814Zm-1.16,2.537a1.128,1.128,0,0,1,.771-2.085A7.55,7.55,0,0,0,685.393,108.351Zm.785.238a6.251,6.251,0,0,0,.847-1.836A1.038,1.038,0,0,1,686.178,108.589Z" transform="translate(-654.719 -81.616)"/><path class="a" d="M689.018,101.376c-1.091,1.287-1.868-.125-3.256-.125-1.193-.014-2.579,1.322-2.819.46-.19-.668,1.036-1.785,2.636-1.905a3.874,3.874,0,0,0-3.993,2.254,2.181,2.181,0,0,1-.8-.079c.559,2.348,2.924-.051,4.037-.051C685.824,101.93,688.957,104.2,689.018,101.376Z" transform="translate(-653.576 -78.779)"/><path class="a" d="M695.7,68.609l1.189,3.1a5.685,5.685,0,0,0-1.086,3.521c0,4.423,3.626,4.835,3.375,3.051-2.548,1.164-2.672-2.523-1.973-3.3a2.284,2.284,0,0,0,1.239,2.635c-2.272-3.762,2.2-5.194,2.2-8.2,0-2.5-1.539-3.318-1.5-5.615.041-2.765,4.109-3.486,4.15-2.422.034.76-2.955.845-3,3.7-.046,2.671,2.94,3.314,2.875,5.911-.048,1.7-3.1,3.271-1.195,6.465l4.33-12.213-3.318,3.746c-1.061-1.324-1.894-1.448-1.894-3.824s2.648-2.724,2.648-3.833c0-.891-1.329-1.014-2.3-1.059a4.135,4.135,0,0,0-4.149,3.993c0,2.769,1.872,4.17.013,6.767Zm3.915-.6c1.184,3.747-2.712,4.741-3.037,7.213C696.339,72.235,700.075,70.817,699.617,68.011Z" transform="translate(-660.572 -60.271)"/><path class="a" d="M685.877,111.953c-.613-.412-2.8-.35-4.021-1.6a.642.642,0,0,0,.024.473,1.672,1.672,0,0,0-1.082,2.036s.985-1.2,1.608-1.176a2.693,2.693,0,0,0,.141,1.4l.131.2C682.151,111.3,685.877,111.953,685.877,111.953Z" transform="translate(-653.557 -83.755)"/><path class="a" d="M669.424,72.413l2.728,1.3a5.347,5.347,0,0,0,1.422,3.033c1.057,1.237,3.942,1.6,4.063,4.513.878-.884.19-2.925-1.766-4.084-7.317-4.3,5-11.03-2.913-13.443,6.834-.46,3.918,5.721,4.465,8.2.754,3.419,3.912,2.593,5.6,4.733l-1.856-10.382-1.763,7.236c-2.328-.343-1.5-3.645-1.443-6.634.114-5.675-9.592-4.05-8.277-.854.5,1.213,3.782-1.5,3.8,1.367.017,1.953-1.2,3.647-1.34,5.562Zm.923-6.834c-.664-.807,2.621-1.709,3.218.312C671.944,64.832,670.657,65.957,670.347,65.579Z" transform="translate(-648.25 -61.611)"/><path class="a" d="M681.608,78.919c-3.224,6.1,7.926,3.323,6.475,8.51C690.427,81.823,680.388,84.945,681.608,78.919Z" transform="translate(-653.687 -69.016)"/><path class="a" d="M726.86,123.918c1.854-.04,3.32-1.867,4.369-2.537-1.506.347-2.3,1.688-4.369,1.735-3.4.066-5.167-9.535-10.955-7.575C721.869,116.01,721.731,124.036,726.86,123.918Z" transform="translate(-670.047 -86.066)"/><path class="a" d="M684.3,80.868a.828.828,0,0,1-.451-.139c-.768-.484-1.174-1.809-1.953-1.665.452.347.25,1.595.89,2.285a1.636,1.636,0,0,0,1.241.56,1.653,1.653,0,0,0,1.657-1.657,1.634,1.634,0,0,0-.641-1.307c-.585-.455-1.417-.76-3.845-1.585-5.775-1.962,2.871-7.821-1.109-11.1,2.186,4.717-4.194,7.52-.878,10.828,1.439,1.5,4.587,1.271,5.668,2.338a.84.84,0,0,1-.579,1.446Z" transform="translate(-652.381 -63.078)"/><path class="a" d="M677.287,98.66A3.679,3.679,0,0,1,674,96.738C673.455,98.013,675.111,101.435,677.287,98.66Z" transform="translate(-650.345 -77.372)"/><path class="a" d="M704.008,125.89c-.065.165-.531.347-1.477.708a2.563,2.563,0,0,1-.709.742C702.951,127.652,704.2,126.5,704.008,125.89Z" transform="translate(-663.442 -91.043)"/><path class="a" d="M714.982,106.133c.238.391.585-.351,1.226-.7C715.374,105.314,714.861,105.92,714.982,106.133Z" transform="translate(-669.606 -81.441)"/><path class="a" d="M709.34,106.573c-1.15-.531-2.333-1.536-3.326-1.335-2.275.451-1.507,3.231-1.284,3.578C705.746,108.26,708.259,108.134,709.34,106.573Zm-2.172,1.157s-.685-1.927-.772-2.086A1.13,1.13,0,0,1,707.168,107.73Zm-1.636-1.6a6.32,6.32,0,0,0,.847,1.834A1.038,1.038,0,0,1,705.532,106.132Z" transform="translate(-664.663 -81.346)"/><path class="a" d="M720.9,88.541c-1.02,1.117-.948,2.032-2.47,3.006,1.986.854,2.038-1.774,4.021-2.346,1.354-.4,2.383,1.239,4.319.352s1.243-4.48,2.183-6.065,3.539-3.058,5.378.133c0,0-3.1-3.055-4.566.591,1.014-.844,2.517-1.1,2.517-.293-.8.254-2.08.722-2.122,3.572-.047,3.317-1.387,4.034-2.431,4.718-1.505,1-5.006.944-5.784,3.206L734.093,90h-3.7c.482-2.718-.575-6.764,4.5-5.824.622-1.348-3.6-5.678-7.272-.74l-.351-1.245C726.5,88.765,723.024,86.216,720.9,88.541Zm6.42-3.291c.626,1.073-1.239,3.009-1.239,3.009a.552.552,0,0,1-.141,1.058c-1.1.325-1.977-.914-3.388-.552C722.848,88.259,725.788,88.368,727.324,85.25Z" transform="translate(-671.232 -70.053)"/><path class="a" d="M674.1,97.87c-5.12.085-1.354-5.53-5.172-6.356,1.97,1.328.889,2.52.9,4.667C669.843,98.772,672.946,99.556,674.1,97.87Z" transform="translate(-648.015 -74.922)"/><path class="a" d="M709.711,78.833c-.591,1.6-2.231,2.054-3.033,3.443.448.014,2.827-.526,3.708-2.017.846-1.442.017-5.645,2.744-6.67,2.851-1.078,5.836-2.662,2.466-6.1,5.171,1.31,2.266,6.827,1.653,7.637-.586.75-2.49,2.26-2.49,4.682,0,1.8-1.611,3.843-2.867,4.092,1.325.537,3.309-2.5,3.309-2.5l6.446-8.338-3.708,1.914s1.016-.878,1.016-3.784c0-4.113-4.415-4.848-4.374-3.571.034.849,1.5,1.45,1.55,2.848s-1.917,2.19-3.447,2.635l-.684-2.3v2.584C709.492,74.686,710.334,77.15,709.711,78.833Z" transform="translate(-665.72 -63.452)"/></g></svg>