<svg xmlns="http://www.w3.org/2000/svg" width="300" height="75.195" viewBox="0 0 300 75.195"><defs><style>.a{fill:#161615;}.b{fill:#524e4d;}.c{fill:#0ca6e4;}.d{fill:#100e0b;stroke:#707070;}.e{fill:#b68749;}</style></defs><g transform="translate(-7.483 -67.804)"><g transform="translate(7.547 94.906)"><rect class="a" width="4.162" height="18.206" transform="translate(0 0)"/><path class="a" d="M32.793,137.349V119.143h2.835l12.6,10.729c.439.359.816.694,1.136,1.009a10.537,10.537,0,0,1,.9.973c-.066-1.02-.11-1.746-.134-2.172s-.031-.749-.031-.978v-9.562h3.742v18.206H51L37.853,126.1q-.469-.433-.822-.778a9.323,9.323,0,0,1-.665-.705c.054.564.1,1.093.127,1.592s.045.933.045,1.3v9.838Z" transform="translate(-19.496 -119.143)"/><path class="a" d="M94.114,133.927H99.5q4.308,0,6.1-1.362c1.191-.906,1.794-2.409,1.794-4.5a5.614,5.614,0,0,0-1.5-4.236,6.109,6.109,0,0,0-4.405-1.437h-7.38Zm-4.165,3.422V119.143h11.514c3.286,0,5.822.781,7.583,2.343a8.41,8.41,0,0,1,2.647,6.647,9.99,9.99,0,0,1-1.028,4.595,7.941,7.941,0,0,1-2.918,3.211,8.325,8.325,0,0,1-2.9,1.071,23.761,23.761,0,0,1-4.445.339Z" transform="translate(-46.479 -119.143)"/><rect class="a" width="4.152" height="18.206" transform="translate(72.836 0)"/><path class="a" d="M187.281,122.39H174.269v11.537h13.012v-4.062h-6.8v-3.1h10.86v6.282q0,2.493-.927,3.4c-.606.606-1.788.9-3.527.9H174.544c-1.738,0-2.918-.3-3.524-.9s-.911-1.736-.911-3.4v-9.6c0-1.646.3-2.782.911-3.39s1.786-.91,3.524-.91h12.341c1.723,0,2.9.3,3.521.9a4.407,4.407,0,0,1,.933,3.234v1.167l-4.058-.006Z" transform="translate(-84.323 -119.143)"/><path class="a" d="M226.263,123.44a4.8,4.8,0,0,1,.914-3.387c.617-.605,1.784-.91,3.518-.91h13.182q2.608,0,3.533.91t.912,3.387v9.61q0,2.49-.912,3.394c-.617.606-1.794.9-3.533.9H230.7c-1.735,0-2.9-.3-3.518-.9s-.914-1.734-.914-3.394Zm4.163,10.487h13.736V122.39H230.426Z" transform="translate(-110.834 -119.143)"/></g><g transform="translate(7.483 118.316)"><path class="b" d="M13.914,166.333v-.517a.851.851,0,0,0-.3-.727,3.4,3.4,0,0,0-1.686-.247h-.292a6.752,6.752,0,0,0-1.163.08,1.256,1.256,0,0,0-.628.264,1.7,1.7,0,0,0-.429,1.376v2.168q0,1.239.5,1.519a1.792,1.792,0,0,0,.711.24,9.539,9.539,0,0,0,1.124.048c.579,0,.957-.009,1.163-.017a1.724,1.724,0,0,0,.777-.294.518.518,0,0,0,.186-.24,1.159,1.159,0,0,0,.088-.3A2.631,2.631,0,0,0,14,169.3c.015-.156.027-.292.033-.431h1.928v.718a2.057,2.057,0,0,1-.761,1.77,4.205,4.205,0,0,1-1.993.491c-.32.02-.711.033-1.169.041s-.728.024-.8.024a4.747,4.747,0,0,1-2.926-.675,1.839,1.839,0,0,1-.567-.8,3.985,3.985,0,0,1-.214-1.06c-.034-.385-.041-.923-.041-1.624s.007-1.244.041-1.6a3.615,3.615,0,0,1,.187-1,2.412,2.412,0,0,1,.517-.826,2.171,2.171,0,0,1,.939-.534,6.015,6.015,0,0,1,1.223-.247c.431-.036.9-.056,1.4-.056.559,0,1.025.008,1.386.024a7.016,7.016,0,0,1,1.038.136,2.328,2.328,0,0,1,.834.359,1.625,1.625,0,0,1,.544.673,2.549,2.549,0,0,1,.2.779,6.927,6.927,0,0,1,.046.872Z" transform="translate(-7.483 -163.49)"/><path class="b" d="M40.161,164.842a7.148,7.148,0,0,0-1.456.112.944.944,0,0,0-.685.433,2.705,2.705,0,0,0-.256,1.1.933.933,0,0,1,.026.251v1.971a2.48,2.48,0,0,0,.283,1.4,1.047,1.047,0,0,0,.686.359,11.315,11.315,0,0,0,1.36.088,7.338,7.338,0,0,0,1.348-.108,1.36,1.36,0,0,0,.706-.34,1.389,1.389,0,0,0,.251-.521,2.727,2.727,0,0,0,.094-.734v-2.5a1.5,1.5,0,0,0-.345-1.118,1.941,1.941,0,0,0-1.053-.366C40.824,164.853,40.5,164.842,40.161,164.842Zm-.034-1.352c.537,0,1.021.02,1.481.054a6.207,6.207,0,0,1,1.311.238,1.869,1.869,0,0,1,.922.569,2.234,2.234,0,0,1,.4.634,3.59,3.59,0,0,1,.229,1.439v2.665a2.888,2.888,0,0,1-.175,1.16,2.534,2.534,0,0,1-.485.783,2.068,2.068,0,0,1-.994.587,6.157,6.157,0,0,1-1.312.233c-.46.026-1.009.039-1.637.039a11.821,11.821,0,0,1-1.955-.132,2.571,2.571,0,0,1-1.295-.584,2.881,2.881,0,0,1-.774-2.324v-2.265a5.751,5.751,0,0,1,.122-1.274,2.115,2.115,0,0,1,.463-.984,2,2,0,0,1,.948-.559,5.466,5.466,0,0,1,1.257-.233C39.076,163.51,39.571,163.49,40.127,163.49Z" transform="translate(-20.874 -163.49)"/><path class="b" d="M65.3,163.613h3.236l4.363,6.912h.05l-.162-6.912h1.974v8.272H71.5l-4.31-6.914H67.1l.112,3.429.049,3.485H65.3Z" transform="translate(-34.779 -163.548)"/><path class="b" d="M100,163.49c.894,0,1.546.02,1.936.045a3.1,3.1,0,0,1,1.421.428,1.445,1.445,0,0,1,.647.82,4,4,0,0,1,.148,1.212h-1.964v-.337a.791.791,0,0,0-.2-.636,2.1,2.1,0,0,0-1.216-.216h-.806a3.286,3.286,0,0,0-1.491.216.56.56,0,0,0-.255.294,1.239,1.239,0,0,0-.091.543,2.721,2.721,0,0,0,.1.6.462.462,0,0,0,.3.283,1.909,1.909,0,0,0,.494.136,6.512,6.512,0,0,0,.687.067c.26.015.514.03.751.041.808.043,1.474.1,2,.156a3.088,3.088,0,0,1,1.2.351,1.34,1.34,0,0,1,.4.4,1.653,1.653,0,0,1,.216.485,3.764,3.764,0,0,1,.067.435c.01.123.026.333.037.619a3,3,0,0,1-.239,1.222,1.762,1.762,0,0,1-.691.807,6.514,6.514,0,0,1-2.922.43h-.737a13.2,13.2,0,0,1-1.667-.084,2.6,2.6,0,0,1-1.209-.434,1.649,1.649,0,0,1-.534-.584,1.942,1.942,0,0,1-.2-.673c-.022-.234-.045-.539-.045-.909h1.956a.813.813,0,0,1-.035.225,2.717,2.717,0,0,0,.081.586.557.557,0,0,0,.232.32,1.174,1.174,0,0,0,.518.195,7.3,7.3,0,0,0,.922.069,2.3,2.3,0,0,1,.419.026c.5-.024.866-.039,1.113-.061a1.882,1.882,0,0,0,.629-.164c.3-.145.446-.494.446-1.03a1.064,1.064,0,0,0-.279-.82.9.9,0,0,0-.266-.128,1.844,1.844,0,0,0-.323-.071c-.112-.011-.257-.02-.423-.03s-.351-.02-.561-.026c-.363-.015-.7-.026-1.025-.041s-.624-.029-.911-.059a5.821,5.821,0,0,1-.864-.149,2.367,2.367,0,0,1-.7-.294,2.033,2.033,0,0,1-.863-1.806,2.235,2.235,0,0,1,.771-1.938A6.156,6.156,0,0,1,100,163.49Z" transform="translate(-49.333 -163.49)"/><path class="b" d="M128.818,170.594a2.67,2.67,0,0,1,.351.017,8.532,8.532,0,0,0,1.093-.071,1.479,1.479,0,0,0,.633-.233.584.584,0,0,0,.274-.346,2.3,2.3,0,0,0,.069-.634v-5.713h1.943v5.925a2.1,2.1,0,0,1-.893,1.891,3.252,3.252,0,0,1-1.443.434c-.6.061-1.334.084-2.188.084-.621,0-1.165-.022-1.607-.067a4.357,4.357,0,0,1-1.231-.316,1.845,1.845,0,0,1-.835-.825,2.855,2.855,0,0,1-.266-1.252v-5.875h1.96v6.01a.95.95,0,0,0,.081.452.738.738,0,0,0,.32.279,1.734,1.734,0,0,0,.664.2A10.685,10.685,0,0,0,128.818,170.594Z" transform="translate(-62.831 -163.548)"/><path class="b" d="M154.51,163.613h1.959v6.912h4.774v1.361H154.51Z" transform="translate(-76.895 -163.548)"/><path class="b" d="M178.911,171.885v-6.914h-2.973v-1.358h7.907v1.358h-2.987v6.914Z" transform="translate(-87.012 -163.548)"/><rect class="b" width="1.962" height="8.272" transform="translate(103.262 0.065)"/><path class="b" d="M220.632,163.613h3.238l4.365,6.912h.055l-.172-6.912h1.967v8.272h-3.261l-4.31-6.914h-.081l.108,3.429.057,3.485h-1.967Z" transform="translate(-108.112 -163.548)"/><path class="b" d="M260.355,169.047a4.672,4.672,0,0,1-.172,1.374,1.516,1.516,0,0,1-.708.936,4.553,4.553,0,0,1-1.943.491q-.526.042-1.577.041c-.565,0-1.04-.013-1.442-.037a5.933,5.933,0,0,1-1.173-.188,2.5,2.5,0,0,1-.948-.45,2.663,2.663,0,0,1-.908-2.345v-2.061a6.355,6.355,0,0,1,.093-1.168,2.764,2.764,0,0,1,.289-.828,2.011,2.011,0,0,1,.5-.58,2.7,2.7,0,0,1,.965-.493,6.337,6.337,0,0,1,1.2-.2c.419-.026.891-.045,1.42-.045h.737a13.481,13.481,0,0,1,1.633.08,2.764,2.764,0,0,1,1.15.394,2,2,0,0,1,.857,1.83v.268h-1.945a1.1,1.1,0,0,0-.363-.95,1.62,1.62,0,0,0-.678-.221c-.294-.028-.723-.05-1.254-.05a11.35,11.35,0,0,0-1.478.071,1.708,1.708,0,0,0-.746.255c-.279.221-.419.729-.419,1.506v1.988a2.148,2.148,0,0,0,.392,1.531,2.049,2.049,0,0,0,1,.325c.258.008.634.017,1.138.017.308,0,.544.006.693.017a4.4,4.4,0,0,0,.8-.075,1.644,1.644,0,0,0,.553-.253.792.792,0,0,0,.3-.506,4.207,4.207,0,0,0,.061-.848v-.227h-2.558v-1.207h4.527Z" transform="translate(-122.676 -163.49)"/></g><path class="c" d="M305.778,125.535l-3.089.636a12.536,12.536,0,0,1-1.116,7.248l2.66,1.547a7.814,7.814,0,0,1,5.141-3.3l-.125-3.26A4.349,4.349,0,0,1,305.778,125.535Zm-3.385-.791,3.128-.638a4.323,4.323,0,1,1,5.151,4.255l.126,3.2a7.969,7.969,0,1,1-7.979,7.965,8.036,8.036,0,0,1,.712-3.3l-2.679-1.547a11.9,11.9,0,0,1-10,5.488,12.187,12.187,0,1,1,11.542-15.422Z" transform="translate(-128.121 -22.658)"/><line class="d" y2="68.763" transform="translate(210.527 74.237)"/><g transform="translate(232.171 67.804)"><g transform="translate(0.011 47.947)"><path class="a" d="M442.123,161.84c0-1.285-.635-2.817-3.659-2.817h-5.331v9.221h1.856V164.67h3.475C441.489,164.67,442.123,163.132,442.123,161.84Zm-7.135-1.077h3.21c1.954,0,2.116.515,2.116,1.09s-.162,1.078-2.116,1.078h-3.21Z" transform="translate(-433.133 -158.816)"/><path class="a" d="M463.335,164.377v-5.354H461.48v5.354c0,1.6-.941,2.38-2.877,2.38s-2.876-.779-2.876-2.38v-5.354h-1.856v5.354c0,2.627,1.68,4.074,4.732,4.074S463.335,167,463.335,164.377Z" transform="translate(-442.924 -158.816)"/><path class="a" d="M486.2,165.472a2.39,2.39,0,0,0-1.118-2.093,2.048,2.048,0,0,0,.829-1.746c0-2.61-2.763-2.61-3.671-2.61h-5.273v9.221h4.708C483.146,168.244,486.2,168.244,486.2,165.472Zm-4.582-4.755c1.829,0,2.438.134,2.438.928,0,.26,0,.952-2.092.952h-3.142v-1.88Zm.715,5.787h-3.51V164.29h3.626c1.873,0,1.873.8,1.873,1.148C484.323,166.077,483.985,166.5,482.335,166.5Z" transform="translate(-453.828 -158.816)"/><path class="a" d="M507.772,166.5h-6.353v-7.481h-1.855v9.221h8.208Z" transform="translate(-464.495 -158.815)"/><rect class="a" width="1.855" height="9.221" transform="translate(45.095 0.207)"/><path class="a" d="M536.336,165.606l.2-.382-1.648-.8-.192.354a3.259,3.259,0,0,1-3.134,1.751c-2.141,0-3.418-1.1-3.418-2.934,0-2.138,1.15-3.268,3.325-3.268a3.023,3.023,0,0,1,3.106,1.693l.171.4,1.643-.758-.166-.377a4.911,4.911,0,0,0-4.765-2.649c-3.2,0-5.192,1.852-5.192,4.835,0,2.321,1.367,4.8,5.2,4.8C533.819,168.265,535.411,167.4,536.336,165.606Z" transform="translate(-477.1 -158.63)"/><rect class="a" width="1.855" height="9.221" transform="translate(61.574 0.207)"/><path class="a" d="M562.538,162.411c-1.7-.156-2.736-.3-2.736-1.009,0-.938,1.535-1.078,2.449-1.078a3.557,3.557,0,0,1,3.062,1.255l.325.37,1.357-1.1-.23-.321a5.267,5.267,0,0,0-4.491-1.894c-3.786,0-4.351,1.838-4.351,2.933,0,2.2,2.455,2.442,4.429,2.633,1.739.168,2.879.334,2.879,1.078,0,1.216-2.364,1.251-2.634,1.251-2.314,0-3.008-.925-3.467-1.538l-.269-.358-1.124.959-.319.289.288.321a5.586,5.586,0,0,0,4.777,2.066c2.135,0,4.628-.783,4.628-2.991C567.109,162.828,564.575,162.6,562.538,162.411Z" transform="translate(-491.808 -158.63)"/><path class="a" d="M444.67,194.774h3.319a2.726,2.726,0,0,1-2.795,1.638c-2.112,0-3.372-1.1-3.372-2.934a2.927,2.927,0,0,1,3.28-3.268,3.091,3.091,0,0,1,2.946,1.65l.181.414,1.6-.844-.159-.359a4.692,4.692,0,0,0-4.534-2.556c-3.2,0-5.193,1.853-5.193,4.835,0,2.321,1.367,4.8,5.2,4.8a4.859,4.859,0,0,0,2.946-.819v.681h1.74v-4.979H444.67Z" transform="translate(-436.349 -172.739)"/><path class="a" d="M473.548,191.669c0-1.259-.645-2.76-3.717-2.76h-5.262v9.221h1.856v-3.712h2.662l2.7,3.712h2.305l-2.84-3.833A2.641,2.641,0,0,0,473.548,191.669Zm-7.123-1.02H469.6c1.789,0,2.139.37,2.139,1.009,0,.662-.341,1.02-2.139,1.02h-3.176Z" transform="translate(-447.974 -172.925)"/><path class="a" d="M490.465,188.516c-3.189,0-5.331,1.957-5.331,4.87,0,3.275,2.763,4.766,5.331,4.766s5.331-1.491,5.331-4.766C495.8,190.473,493.653,188.516,490.465,188.516Zm0,7.9a3.128,3.128,0,0,1-3.452-3.211c0-1.761,1.42-2.991,3.452-2.991s3.452,1.23,3.452,2.991A3.128,3.128,0,0,1,490.465,196.412Z" transform="translate(-457.683 -172.739)"/><path class="a" d="M516.8,194.263c0,1.6-.941,2.381-2.877,2.381s-2.876-.779-2.876-2.381v-5.354h-1.855v5.354c0,2.627,1.68,4.074,4.731,4.074s4.732-1.447,4.732-4.074v-5.354H516.8Z" transform="translate(-469.04 -172.925)"/><path class="a" d="M537.139,188.909h-5.331v9.221h1.855v-3.573h3.476c3.024,0,3.659-1.539,3.659-2.83S540.163,188.909,537.139,188.909Zm-3.476,1.74h3.211c1.953,0,2.115.516,2.115,1.09s-.162,1.078-2.115,1.078h-3.211Z" transform="translate(-479.718 -172.925)"/><path class="a" d="M554.183,194.222h5.395v-1.74h-5.395v-1.833h6.455v-1.74h-8.31v9.221h8.448v-1.74h-6.593Z" transform="translate(-489.406 -172.925)"/></g><path class="e" d="M495.371,119.8l-5.526-3.264a4.174,4.174,0,0,0,2.972-1l1.682,2.055-1.029-2.547c1.119-.877,2.032-1.821,3.176-1.848,3.118-.077.934,3.666,2.074,3.679,1.274.011,2.655-4.169-.4-6-3.163-1.915-5.925.849-8.163.379l8.386-3.744h-12.25l-.435-.821a4.049,4.049,0,0,0,4.854-.969l3.487.5-2.882-1.128c.689-.72,1.271-1.28,2-1,1.034.395,1.64,1.3,3.437,1.324,3.033.034,5.239-5.356,1.232-7.7.3,3.844-1.486,4.035-4.591,1.994l1.066-1.739-1.591,1.4c-2.985-1.328-4.439,1.311-5.695,2.167s-2.407-.856-3.934,1.175c2.277-.75,3.437,1.427,4.934,0-.621,3.856-2.835-1.175-5.042.75,1.913.143,2.912,1.855,4.435,1.855,2.807,0,.305-5.4,4.257-5.4l-.656-.421c2.241-.211,2.355,2.029,5.732,2.07.349.508-.883.548-1.748.253-.141.719,4.585,2.327,3.449-3.045,1.489.807,1.164,4.186-.229,5.47-.27.249-.523.372-.69.112-.381-.575.595-.565.872-1.435a3.125,3.125,0,0,1-4.093-.3c-1.229-1.144-3.073-2.537-3.864-.128s-1.447,3.529-2.9,3.554c-2,.033-4.118-3.319-6.336-1.466,4.24.393,5.24,7.134,8.971,7.219,2.9,0,3.553-1.273,5.438-1.273s3.872,1,3.872,3.484a3.6,3.6,0,0,1-.791,2.349,4.919,4.919,0,0,0,.29-2.773,3.019,3.019,0,0,0-3.2-2.39c-2.327,0-4.2,3.812-6.79,3.812-5.182,0-6.515-9.993-11.936-8.455,3.991,2.7,4.429,7.009,6.575,8.664,2.177,1.677,4.768.991,6.2,2.255a4.109,4.109,0,0,1,1.022,2.321h-.494a3.1,3.1,0,0,0-.866-1.311c-1.243-1.306-4.974-.733-6.688-2.582s-2.968-7.417-6.342-8.27c2.943,1.888,3.6,6.758,5.7,9.144s4.885,1.122,6.165,2.374a7.956,7.956,0,0,1,.589.645h-2.414a4.118,4.118,0,0,0-.7-.067,11.606,11.606,0,0,0-1.182.067H481.46a2.742,2.742,0,0,1-1.2-.74c-1.671-1.764-1.516-3.619-1.383-5.809.323,2.058.722,6.791,4.258,6.26-4.45-1.52-1.862-9.146-7.3-11.1-.588-.215-.386-2.13,1.1-2.416-2.937.564-2.92-.512-.845-2.671-1.278.814-2.674.579-2.983,1.5,0,0,2.407,3.779,2.407,4.516a13.683,13.683,0,0,1-1.76,3.813,6.737,6.737,0,0,1-3.018.188,2.59,2.59,0,0,1-.877-2.285c.37-.788,3.348-1.436,3.4-2.6.038-.916-1.2-1-1.16-.523.718.24,1.027,1.3-1.078,1.786l.475-.759s-1.56,1.246-1.639,1.3a1.179,1.179,0,0,1-.674.007c-.229-.073-2.482-1.155-2.1-2.226a6.674,6.674,0,0,0,2.388.3c1.715,0,1.869-.743,1.869-.743a7.452,7.452,0,0,1-3.692,0c-.74-.172.044-1.105.305-1.117h1.775c.107,0,.257-.247.015-.262-.178,0-1.308-.034-1.4-.311-.15-.474-.455-3.442-.455-3.442s.387-.924.064-1.229-.474-.148-.474-.148c.735,4.121-2.424,6.688-4.231,6.192l-.213-.037a5.621,5.621,0,0,0,1.6.811,4.275,4.275,0,0,1-5.287-2.585c-.294.151-.3.952-.264,1.461a2.271,2.271,0,0,1-.482-2.808c-.859.414-.893.546-.893.546.034-.708,1.273-1.17,1.9-1.994a1.662,1.662,0,0,0-.842-2.627,2.359,2.359,0,0,1-1.828,2.568c-1.246.413-1.034-.717-2.191-.466,1.89.43,1.79,3.042,3.676,4.116-2.52-.591-2.954-4.016-6.021-3.677,1.764-2.512,4.553-.354,5.707-2.094-2.985.684-5.018-1.837-5.364-4.6-.527-4.228-4.1-2.144-4.037-4.228,1.8.81,5.78-2.27,6.953,1.237,1.233,3.667,3.717,5.161,5.953,3.467l-9.748-9.891L453.1,90.62c-2.545.5-5.615-1.016-3.95-4.575-2.409-1.119-5.6,2.885-2.655,6.024,1.361,1.446,4.679.914,5.551,3.875l-3.159-.256,3.245.849.968,2.873-7.549-3.722,4.65,5.411c-2.717,1.438-3.391-2.68-6.906-2.592-2.458.059-5.211,2.592-4.066,5.553,3.676-2.228,4.86-.639,6.421.906l-2.266,1.209,2.68-.812a5,5,0,0,0,4.053,1.49c3.177-.237,5.979-1.261,6.7-.4.555.656-.082,1.047-1.228,1.047H440.4l6.089,3.263c-.589.456-2.286,2.538-3.456,2.538s-3.8-1.8-4.5,1.353c2.707-.462,4.079,5.453,9.77.735l-2.662,4.4H433.112v1.512h75.226V119.8Zm-2.976-17.884c1.4.6-2.927,4.811-4.253,4.657C490.906,105.749,491,101.307,492.395,101.912Zm.568,12.426c.979-2.606,4.045-3.726,5.312-1.446.061.114-.034.2-.257-.017-1.585-1.588-3.618-.08-4.89,1.575C492.946,114.684,492.888,114.536,492.963,114.337Zm-44.406-27.91c-.8,1.393-.644,3.935,2.56,4.69C445.748,92.311,445.884,86.215,448.557,86.428Zm-4.347,16.582a4.523,4.523,0,0,0-4.665.258C440.285,100.812,444.861,100.607,444.21,103.009Zm1.085-.973a2.789,2.789,0,0,0-1.091-1.056,4.517,4.517,0,0,0-1.6-.127c-.63.031-1.175.056-1.343-.334-.112-.254.007-.525.336-.764a2.621,2.621,0,0,1,1.326-.431,1.828,1.828,0,0,1,1.358.379c.311.279.438.3.493.276.079-.038.059-.223.052-.348-.013-.092-.027-.163.027-.156a2.782,2.782,0,0,1,1.763,1.235,4.45,4.45,0,0,0,4.751,1.8C450.648,105.033,446.589,104.285,445.3,102.036Zm2.287,3.434c-.152-1.1,5.38-1.917,5.424-.338C453.047,106.508,447.746,106.686,447.583,105.47Zm28.562,6.791c-1.834,3.941,2.687,6.405,3.532,7.191a2.378,2.378,0,0,1,.29.344h-1.525a3.876,3.876,0,0,0-1.459-1.9,8.289,8.289,0,0,1,.885,1.9h-.725C476.091,117.714,474.345,116.124,476.144,112.261Zm-.455,7.535h-.646l-.747-2.151A3.819,3.819,0,0,1,475.689,119.8Zm-1.845,0h-.706a5.321,5.321,0,0,0-.277-3.961C474.041,116.8,474.028,118.311,473.844,119.8Zm-1.254,0h-.631a3.891,3.891,0,0,0-.435-3.321A3.28,3.28,0,0,1,472.591,119.8Zm-4.68,0c.371-1.629-.3-2.125-1.676-3.593,2.065,1.421,2.809,2.4,2.673,3.593Zm1.676-2.857a4.433,4.433,0,0,1,1.342,2.857H470.3A5.651,5.651,0,0,0,469.587,116.939Zm-.11-2.8c.9,0,2.619-.049,2.666-.049.243,0,.291.079.3.121.006.092-.114.548-.3.595a10.367,10.367,0,0,1-5.346,0c-.178-.047-.3-.5-.291-.595.007-.042.052-.121.3-.121C466.807,114.095,468.573,114.143,469.477,114.143Zm-2.612-6.216c-.732.24-.856,1.423,1.27,1.9-.691.1-2.385-.215-2.437-1.382C465.654,107.533,466.893,107.445,466.865,107.927Zm-2.08,2.017a12.888,12.888,0,0,1,4.07,1.109,2.563,2.563,0,0,1-.879,2.285c-.487.145-2.865-.107-3.211-1.119,1.43.385,1.526-.152,1.526-.152a2.271,2.271,0,0,1-1.831-.9,1.627,1.627,0,0,0,1.509-.014s-1.982-.758-2.043-1.213Zm-1.976,2.2.048-.384c.13,4.726,3.566,5.475,3.566,7.826,0,.072-.006.141-.011.211h-.606a1.767,1.767,0,0,0-.373-1.279c-2.238-2.986-2.334-3.628-2.334-3.628.192,2.264,1.635,2.554,1.982,4.906h-.93C463.809,118.036,462.022,117.345,462.809,112.144Zm.206,7.652h-1.658l.882-1.418A3.638,3.638,0,0,1,463.015,119.8Zm-2.686,0h-1.085c1.626-3.026.718-7.94,2.122-9.452C460.392,112.1,461.929,116.33,460.329,119.8Zm.444-11.393c-.661.59-3.69,3.245-2.746,10.487.956-1.563.138-7.487,2.961-9.635-1.977,2.409-.929,6.676-2.36,10.54H457.24C457.634,116.682,455.906,112,460.773,108.4ZM455.2,119.8h-.641a13.162,13.162,0,0,0,1.174-2.295A5.054,5.054,0,0,1,455.2,119.8Zm3.13-12.48c.575.64-3.049,2.283-4.829,1.654C456.484,109.01,457.74,106.668,458.332,107.315ZM454.2,109.7a5.363,5.363,0,0,0,3.783-1.193c-.2,1.477-1.773,1.985-3.764,1.985s-3.828-2.2-5.344-.729c2.667-.313,3.063,2.5,6.076,1.557-2.605,2.8-4.511-2.14-7.507-.709C448.958,106.991,452.155,109.7,454.2,109.7Zm-14.83,4.509c1.554-2.3,2.762.868,5.345-.894.86,1.355-1.249,2.2-2.478,1.446A3.3,3.3,0,0,0,439.368,114.21Zm7.561,1.641c-1.14.883-4.049,1.777-4.007-.126,3.025.586,3.72-3.711,6.414-2.445C448.654,113.407,448.05,114.978,446.928,115.851Zm8.458-.967a9.525,9.525,0,0,1-.609,3.692l-4.37,1.219h-3.894Z" transform="translate(-433.112 -76.325)"/><path class="e" d="M505.342,106.781c-2.108.23-1.776,3.091-.191,3.091s1.818-.739,3.018-.739,1.626.787,2.592.787,1.529-.689,1.1-1.293c-.623,1.017-1.728-.37-2.539-.37a4.811,4.811,0,0,0-2.588.923c-.91.464-1.78.024-1.44-.51C504.6,108.66,504.144,107.795,505.342,106.781Z" transform="translate(-466.513 -86.205)"/><path class="e" d="M517.9,86.561c-2.039,3.028.661,6.137-3.617,7.211,5.083.052,2.44-4.28,4.295-6.774s3.957-1.572,4.635-4.457C522.146,84.888,519.067,84.823,517.9,86.561Z" transform="translate(-471.434 -74.761)"/><path class="e" d="M508.907,98.193c-1.164-1.142-.64-3.192-.64-3.192S506.432,97.3,508.907,98.193Z" transform="translate(-468.284 -80.644)"/><path class="e" d="M520.868,89c-1.633,2.425.249,5.936-3.175,6.953,4.313.107,2.242-4.886,3.8-6.617,1.362-1.988,2.607-1.645,3.251-3.761C523.834,87.263,521.8,87.611,520.868,89Z" transform="translate(-473.043 -76.193)"/><path class="e" d="M530.107,105.854a4.137,4.137,0,0,0-5.681,2.914,27.413,27.413,0,0,0,2.813-2.311C528.208,105.821,529.71,106.208,530.107,105.854Z" transform="translate(-476.222 -85.597)"/><path class="e" d="M519.3,115.649c.257.572,1.318-.7,2.92-.214C521.45,114.909,519.163,114.913,519.3,115.649Z" transform="translate(-473.801 -90.116)"/><path class="e" d="M535.117,102.794c-.753,3.5-7.31.91-7.255,5.887C529.251,106.217,535.686,106.435,535.117,102.794Z" transform="translate(-477.844 -84.323)"/><path class="e" d="M517.027,118.614c.123.747,1.438-.806,3.957.276C520.117,117.634,516.839,117.516,517.027,118.614Z" transform="translate(-472.725 -91.437)"/><path class="e" d="M506.149,93.356c-2.54-4.171,3.415-5.13,1.732-8.573C508.1,87.476,502.376,90.255,506.149,93.356Z" transform="translate(-466.983 -75.82)"/><path class="e" d="M506.626,131.653c-.343.243-1.161.48-1.8.91-.065.112-.174.507-.318.6A2.391,2.391,0,0,0,506.626,131.653Z" transform="translate(-466.818 -97.948)"/><path class="e" d="M490.094,113.347c-.989-.2-2.167.8-3.314,1.327,1.078,1.553,3.578,1.677,4.581,2.228C491.586,116.558,492.346,113.794,490.094,113.347Zm-1.153,2.522a1.121,1.121,0,0,1,.767-2.072A7.477,7.477,0,0,0,488.941,115.869Zm.78.236a6.22,6.22,0,0,0,.841-1.824A1.032,1.032,0,0,1,489.721,116.105Z" transform="translate(-458.449 -89.293)"/><path class="e" d="M492.529,108.9c-1.084,1.28-1.857-.125-3.237-.125-1.186-.014-2.564,1.314-2.8.457-.188-.664,1.03-1.774,2.62-1.894a3.851,3.851,0,0,0-3.97,2.24,2.173,2.173,0,0,1-.8-.078c.555,2.333,2.907-.051,4.013-.051C489.354,109.45,492.468,111.7,492.529,108.9Z" transform="translate(-457.298 -86.436)"/><path class="e" d="M499.262,76.092l1.181,3.084a5.651,5.651,0,0,0-1.079,3.5c0,4.4,3.6,4.806,3.355,3.033-2.533,1.157-2.656-2.508-1.962-3.282a2.271,2.271,0,0,0,1.232,2.619c-2.258-3.74,2.191-5.163,2.191-8.148,0-2.489-1.53-3.3-1.5-5.581.041-2.748,4.084-3.465,4.125-2.407.034.756-2.937.841-2.984,3.676-.045,2.655,2.922,3.294,2.858,5.876-.049,1.689-3.078,3.251-1.188,6.427l4.3-12.14-3.3,3.723c-1.054-1.316-1.882-1.44-1.882-3.8s2.632-2.708,2.632-3.81c0-.886-1.321-1.008-2.285-1.053a4.111,4.111,0,0,0-4.124,3.969c0,2.753,1.861,4.146.013,6.726Zm3.892-.594c1.177,3.724-2.7,4.713-3.019,7.17C499.9,79.7,503.609,78.287,503.154,75.5Z" transform="translate(-464.342 -67.804)"/><path class="e" d="M489.406,119.476c-.609-.409-2.779-.348-4-1.593a.638.638,0,0,0,.024.47,1.662,1.662,0,0,0-1.075,2.023s.979-1.191,1.6-1.169a2.677,2.677,0,0,0,.14,1.388l.13.2C485.7,118.826,489.406,119.476,489.406,119.476Z" transform="translate(-457.279 -91.447)"/><path class="e" d="M472.984,79.891l2.711,1.3a5.316,5.316,0,0,0,1.413,3.015c1.05,1.229,3.918,1.593,4.038,4.486.873-.878.189-2.908-1.755-4.06-7.273-4.271,4.965-10.964-2.9-13.363,6.793-.457,3.895,5.686,4.439,8.15.75,3.4,3.888,2.578,5.569,4.7L484.658,73.8l-1.752,7.193c-2.314-.34-1.5-3.623-1.434-6.6.113-5.641-9.535-4.026-8.228-.849.493,1.205,3.759-1.494,3.779,1.359.017,1.941-1.2,3.625-1.331,5.528ZM473.9,73.1c-.66-.8,2.605-1.7,3.2.31C475.489,72.355,474.21,73.473,473.9,73.1Z" transform="translate(-451.936 -69.153)"/><path class="e" d="M485.164,86.452c-3.2,6.062,7.878,3.3,6.437,8.459C493.932,89.339,483.952,92.442,485.164,86.452Z" transform="translate(-457.41 -76.608)"/><path class="e" d="M530.355,131.4c1.843-.04,3.3-1.856,4.343-2.522-1.5.345-2.285,1.678-4.343,1.725-3.378.066-5.136-9.478-10.89-7.529C525.393,123.539,525.257,131.518,530.355,131.4Z" transform="translate(-473.88 -93.773)"/><path class="e" d="M487.821,88.314a.824.824,0,0,1-.448-.138c-.763-.481-1.167-1.8-1.941-1.655.449.345.248,1.585.884,2.271a1.627,1.627,0,0,0,1.234.556A1.643,1.643,0,0,0,489.2,87.7a1.624,1.624,0,0,0-.637-1.3c-.582-.452-1.409-.756-3.822-1.575-5.74-1.95,2.854-7.774-1.1-11.035,2.173,4.689-4.169,7.475-.873,10.763,1.431,1.489,4.559,1.264,5.634,2.324a.834.834,0,0,1-.575,1.437Z" transform="translate(-456.094 -70.631)"/><path class="e" d="M480.827,106.182a3.658,3.658,0,0,1-3.272-1.91C477.018,105.539,478.664,108.941,480.827,106.182Z" transform="translate(-454.045 -85.021)"/><path class="e" d="M507.555,133.424c-.064.164-.528.345-1.468.7a2.544,2.544,0,0,1-.705.739C506.5,135.175,507.747,134.035,507.555,133.424Z" transform="translate(-467.231 -98.784)"/><path class="e" d="M518.542,113.662c.236.388.581-.349,1.218-.7C518.931,112.848,518.422,113.451,518.542,113.662Z" transform="translate(-473.436 -89.117)"/><path class="e" d="M512.871,114.1c-1.143-.528-2.32-1.527-3.307-1.327-2.262.449-1.5,3.212-1.276,3.557C509.3,115.775,511.8,115.65,512.871,114.1Zm-2.159,1.15s-.681-1.916-.767-2.074A1.123,1.123,0,0,1,510.712,115.248Zm-1.626-1.588a6.292,6.292,0,0,0,.842,1.823A1.032,1.032,0,0,1,509.086,113.659Z" transform="translate(-468.459 -89.021)"/><path class="e" d="M524.449,96.03c-1.014,1.11-.942,2.02-2.455,2.988,1.974.849,2.026-1.764,4-2.332,1.346-.393,2.369,1.232,4.293.35s1.235-4.453,2.17-6.029,3.518-3.04,5.346.132c0,0-3.087-3.037-4.539.588,1.008-.839,2.5-1.1,2.5-.291-.791.252-2.067.718-2.109,3.551-.047,3.3-1.379,4.01-2.416,4.69-1.5.99-4.976.939-5.75,3.187l12.072-5.386h-3.683c.479-2.7-.572-6.723,4.473-5.789.619-1.34-3.58-5.644-7.228-.736l-.349-1.238C530.01,96.253,526.556,93.719,524.449,96.03Zm6.382-3.272c.622,1.067-1.232,2.991-1.232,2.991a.549.549,0,0,1-.14,1.053c-1.095.323-1.965-.91-3.368-.55C526.381,95.75,529.3,95.858,530.831,92.759Z" transform="translate(-475.074 -77.652)"/><path class="e" d="M477.626,105.366c-5.09.085-1.346-5.5-5.141-6.318,1.957,1.32.884,2.5.9,4.639C473.4,106.263,476.483,107.041,477.626,105.366Z" transform="translate(-451.7 -82.555)"/><path class="e" d="M513.253,86.3c-.588,1.591-2.218,2.041-3.015,3.422a5.316,5.316,0,0,0,3.686-2.005c.841-1.433.017-5.61,2.728-6.63,2.834-1.071,5.8-2.646,2.451-6.065,5.141,1.3,2.253,6.787,1.643,7.592-.582.745-2.475,2.247-2.475,4.654,0,1.785-1.6,3.82-2.85,4.068,1.317.534,3.289-2.483,3.289-2.483l6.408-8.288-3.686,1.9s1.01-.873,1.01-3.762c0-4.088-4.389-4.819-4.348-3.55.034.844,1.493,1.442,1.54,2.831s-1.906,2.177-3.427,2.619l-.68-2.285v2.569C513.035,82.173,513.873,84.623,513.253,86.3Z" transform="translate(-469.524 -71.006)"/></g></g></svg>