<svg xmlns="http://www.w3.org/2000/svg" xmlns:xlink="http://www.w3.org/1999/xlink" width="106.707" height="106.707" viewBox="0 0 106.707 106.707"><defs><style>.a{fill:#fff;stroke:#fff;stroke-width:2px;}.b{filter:url(#c);}.c{filter:url(#a);}</style><filter id="a" x="0" y="0" width="106.707" height="106.707" filterUnits="userSpaceOnUse"><feOffset dy="3" input="SourceAlpha"/><feGaussianBlur stdDeviation="3" result="b"/><feFlood flood-opacity="0.161"/><feComposite operator="in" in2="b"/><feComposite in="SourceGraphic"/></filter><filter id="c" x="31.368" y="22.963" width="54.767" height="62.281" filterUnits="userSpaceOnUse"><feOffset dy="3" input="SourceAlpha"/><feGaussianBlur stdDeviation="3" result="d"/><feFlood flood-opacity="0.161"/><feComposite operator="in" in2="d"/><feComposite in="SourceGraphic"/></filter></defs><g transform="translate(10 7)"><g class="c" transform="matrix(1, 0, 0, 1, -10, -7)"><path class="a" d="M503.908,445.51a43.722,43.722,0,0,0-12.8-15.037,1.765,1.765,0,0,0-2.1,2.838,40.192,40.192,0,0,1,11.766,13.816,39.386,39.386,0,0,1,4.405,18.226,39.824,39.824,0,1,1-39.824-39.824,1.765,1.765,0,0,0,0-3.53,43.331,43.331,0,1,0,38.554,23.51Zm0,0" transform="translate(-412 -415)"/></g><g class="b" transform="matrix(1, 0, 0, 1, -10, -7)"><path class="a" d="M508.224,484.779a1.763,1.763,0,0,0-.892,1.534v38.723a1.764,1.764,0,1,0,3.528,0V489.417l26.124,15.551-19.21,12.378a1.764,1.764,0,0,0,1.912,2.965l21.6-13.918a1.765,1.765,0,0,0-.053-3L510,484.8a1.763,1.763,0,0,0-1.775-.017Zm0,0" transform="translate(-465.96 -454.56)"/></g></g></svg>