<svg xmlns="http://www.w3.org/2000/svg" width="125.512" height="125.664" viewBox="0 0 125.512 125.664"><defs><style>.a{fill:none;stroke:#c6c6c6;stroke-linecap:round;stroke-linejoin:round;stroke-width:2.5px;}</style></defs><g transform="translate(1758.982 -2823.177)"><g transform="translate(-1724.908 2857.962)"><path class="a" d="M-1550.059,3065.425a22.488,22.488,0,0,1-21.325-22.457,22.174,22.174,0,0,1,.828-6.035,22.472,22.472,0,0,1,20.773-16.431c.294-.009.589-.018.883-.018s.589.009.883.018a16.463,16.463,0,0,1,15.566,16.431,16.462,16.462,0,0,1-15.566,16.431,22.482,22.482,0,0,0,20.773-16.431,22.183,22.183,0,0,0,.828-6.035,22.5,22.5,0,0,0-21.325-22.457q-.58-.028-1.159-.028t-1.159.028a28.519,28.519,0,0,0-27.36,28.492A28.519,28.519,0,0,0-1550.059,3065.425Z" transform="translate(1577.419 -3008.413)"/><path class="a" d="M-1522.292,3020.627a16.456,16.456,0,0,0-15.566,16.431,16.456,16.456,0,0,0,15.566,16.431c.294.009.589.019.883.019s.589-.009.883-.019a22.482,22.482,0,0,0,20.773-16.431,22.183,22.183,0,0,0,.828-6.035,22.5,22.5,0,0,0-21.325-22.457,28.519,28.519,0,0,1,27.36,28.492,28.519,28.519,0,0,1-27.36,28.492q-.58.027-1.159.027t-1.159-.027a22.488,22.488,0,0,1-21.325-22.457,22.174,22.174,0,0,1,.828-6.035A22.472,22.472,0,0,1-1522.292,3020.627Z" transform="translate(1549.928 -3008.538)"/></g><path class="a" d="M-1672.835,2829.582l-2.881,13.954a7.078,7.078,0,0,0,10.906,7.287l11.789-8,13.24,19.815-11.9,7.83a7.078,7.078,0,0,0,2.559,12.865l13.994,2.679-4.649,23.373-13.954-2.881a7.078,7.078,0,0,0-7.287,10.906l8,11.789-19.815,13.24-7.83-11.9a7.078,7.078,0,0,0-12.865,2.559l-2.679,13.994-23.373-4.649,2.881-13.954a7.078,7.078,0,0,0-10.906-7.287l-11.789,8-13.24-19.815,11.9-7.83a7.078,7.078,0,0,0-2.559-12.865l-13.994-2.678,4.649-23.374,13.954,2.881a7.078,7.078,0,0,0,7.287-10.906l-8-11.789,19.815-13.24,7.83,11.9a7.078,7.078,0,0,0,12.865-2.559l2.679-13.994Z" transform="translate(0)"/><path class="a" d="M-1672.835,2829.582l-2.881,13.954a7.078,7.078,0,0,0,10.906,7.287l11.789-8,13.24,19.815-11.9,7.83a7.078,7.078,0,0,0,2.559,12.865l13.994,2.679-4.649,23.373-13.954-2.881a7.078,7.078,0,0,0-7.287,10.906l8,11.789-19.815,13.24-7.83-11.9a7.078,7.078,0,0,0-12.865,2.559l-2.679,13.994-23.373-4.649,2.881-13.954a7.078,7.078,0,0,0-10.906-7.287l-11.789,8-13.24-19.815,11.9-7.83a7.078,7.078,0,0,0-2.559-12.865l-13.994-2.678,4.649-23.374,13.954,2.881a7.078,7.078,0,0,0,7.287-10.906l-8-11.789,19.815-13.24,7.83,11.9a7.078,7.078,0,0,0,12.865-2.559l2.679-13.994Z" transform="translate(0)"/><path class="a" d="M-1669.273,2924.31l-2.495,8.012,8.745,13.531" transform="translate(-70.124 -81.488)"/><path class="a" d="M-1459.092,2824.933l-6.95,5.5-2.073,13.814" transform="translate(-237.116)"/><path class="a" d="M-1757.286,3164.228l3.183,5.834,16.556,3.561" transform="translate(0 -278.217)"/><path class="a" d="M-1272.407,2921.412l-9.135-.636-11.574,7.849" transform="translate(-380.614 -78.589)"/><path class="a" d="M-1657.909,3370.506l9,.674,11.526-8.059" transform="translate(-81.488 -441.307)"/><path class="a" d="M-1417.992,3414.089l6.69-5.162,1.716-14.472" transform="translate(-278.217 -467.001)"/><path class="a" d="M-1210.2,3309.079l2.5-9.722-9.552-11.148" transform="translate(-442.819 -379.88)"/><path class="a" d="M-1168.359,3115.912l-4.012-8.62-15.671-1.988" transform="translate(-466.773 -229.901)"/></g></svg>