<svg xmlns="http://www.w3.org/2000/svg" width="101.37" height="88.136" viewBox="0 0 101.37 88.136"><defs><style>.a{fill:none;stroke:#0ca6e4;stroke-linecap:round;stroke-linejoin:round;stroke-width:2.5px;}</style></defs><g transform="translate(1161.401 -1661.326)"><path class="a" d="M-1063.808,1662.576l7.6,13.174-7.6,13.174-7.606-13.171Z" transform="translate(-54.499)"/><path class="a" d="M-1051.7,1662.576l15.213,0,7.6,13.171-15.213,0Z" transform="translate(-66.606)"/><path class="a" d="M-1044.1,1696.719l-7.6,13.174h7.6l3.8-6.584,7.612,0,3.8-6.59Z" transform="translate(-66.606 -20.969)"/><path class="a" d="M-940.224,1829.411l-15.21,0-7.608-13.17,15.21,0Z" transform="translate(-121.057 -94.371)"/><path class="a" d="M-940.225,1850.378l-7.611,13.173-15.208,0,7.609-13.174Z" transform="translate(-121.056 -115.338)"/><path class="a" d="M-961.494,1829.41l-7.608-13.17-3.8,6.584,3.8,6.583-3.808,6.591,3.806,6.586Z" transform="translate(-114.997 -94.374)"/><path class="a" d="M-999.359,1829.394l-15.21,0-7.608-13.17,15.21,0Z" transform="translate(-84.739 -94.361)"/><path class="a" d="M-999.36,1850.361l-7.611,13.173-15.208,0,7.609-13.174Z" transform="translate(-84.737 -115.328)"/><path class="a" d="M-1020.629,1829.393l-7.608-13.171-3.8,6.584,3.8,6.584-3.808,6.591,3.806,6.586Z" transform="translate(-78.678 -94.364)"/><path class="a" d="M-1140.447,1863.506l7.607-13.17,15.21,0-7.6,13.173Z" transform="translate(-12.101 -115.312)"/><path class="a" d="M-1152.548,1842.538l-7.6-13.177,7.606-13.169,7.6,13.177Z" transform="translate(0 -94.344)"/><path class="a" d="M-1132.835,1829.362l15.21,0-3.8-6.583h-7.6l-3.8-6.593-7.607,0Z" transform="translate(-12.106 -94.339)"/><path class="a" d="M-1110.865,1812.3l7.608-13.17,15.21,0-7.6,13.173Z" transform="translate(-30.27 -83.865)"/><path class="a" d="M-1122.966,1791.334l-7.6-13.177,7.606-13.169,7.6,13.176Z" transform="translate(-18.168 -62.897)"/><path class="a" d="M-1103.252,1778.158l15.21,0-3.8-6.584h-7.6l-3.8-6.593-7.607,0Z" transform="translate(-30.274 -62.891)"/><path class="a" d="M-1034.255,1713.8l7.6,13.173-7.6,13.174-7.606-13.171Z" transform="translate(-72.649 -31.458)"/><path class="a" d="M-1022.147,1713.8l15.213,0,7.6,13.171-15.213,0Z" transform="translate(-84.756 -31.458)"/><path class="a" d="M-1014.545,1747.94l-7.6,13.174h7.6l3.8-6.584,7.612,0,3.8-6.59Z" transform="translate(-84.756 -52.427)"/><path class="a" d="M-1004.7,1765.018l-7.606,13.176,3.8,6.586h7.6l3.8-6.587Z" transform="translate(-90.799 -62.916)"/><path class="a" d="M-992.594,1765.019l15.213,0,7.6,13.171-15.213,0Z" transform="translate(-102.907 -62.916)"/><path class="a" d="M-978.942,1799.161l-3.8,6.587,3.8,6.587,3.8-6.584,7.612,0,3.8-6.59Z" transform="translate(-108.957 -83.885)"/><path class="a" d="M-1052.439,1829.377l-7.607-13.175h-7.605l-3.8,6.586,3.8,6.585Z" transform="translate(-54.475 -94.351)"/><path class="a" d="M-1058.5,1850.344l-7.611,13.173-15.208,0,7.609-13.174Z" transform="translate(-48.419 -115.317)"/><path class="a" d="M-1079.764,1839.856l-3.8-6.585-7.605,0,3.8,6.584-3.808,6.591,3.807,6.586Z" transform="translate(-42.36 -104.833)"/><path class="a" d="M-1081.283,1761.1h15.214l3.8-6.587-3.8-6.585-7.6,0Z" transform="translate(-48.438 -52.42)"/><path class="a" d="M-1093.384,1740.129l-7.6-13.178,7.606-13.169,7.6,13.176Z" transform="translate(-36.337 -31.449)"/><path class="a" d="M-1073.67,1726.954h7.6l3.8-6.585h-7.6l-3.8-6.593-7.607,0Z" transform="translate(-48.443 -31.444)"/></g></svg>