<svg xmlns="http://www.w3.org/2000/svg" width="102.417" height="129.027" viewBox="0 0 102.417 129.027"><defs><style>.a{fill:none;stroke:#c6c6c6;stroke-linecap:round;stroke-linejoin:round;stroke-width:2.5px;}</style></defs><g transform="translate(917.476 -2681.841)"><g transform="translate(-883.363 2683.091)"><path class="a" d="M-800.746,2717.265a13.48,13.48,0,0,1-12.783-13.461,13.309,13.309,0,0,1,.5-3.618,13.471,13.471,0,0,1,12.452-9.849c.177-.006.353-.011.529-.011s.353.005.529.011a9.868,9.868,0,0,1,9.331,9.849,9.868,9.868,0,0,1-9.331,9.849,13.477,13.477,0,0,0,12.452-9.849,13.3,13.3,0,0,0,.5-3.618,13.483,13.483,0,0,0-12.783-13.461q-.348-.017-.695-.017t-.695.017a17.1,17.1,0,0,0-16.4,17.079A17.1,17.1,0,0,0-800.746,2717.265Z" transform="translate(817.147 -2683.091)"/><path class="a" d="M-793.291,2690.371a9.864,9.864,0,0,0-9.331,9.849,9.865,9.865,0,0,0,9.331,9.849c.177.005.353.011.529.011s.353-.006.529-.011a13.477,13.477,0,0,0,12.452-9.849,13.3,13.3,0,0,0,.5-3.618,13.484,13.484,0,0,0-12.783-13.461,17.1,17.1,0,0,1,16.4,17.079,17.1,17.1,0,0,1-16.4,17.079q-.348.016-.695.017t-.695-.017a13.481,13.481,0,0,1-12.783-13.462,13.309,13.309,0,0,1,.5-3.617A13.471,13.471,0,0,1-793.291,2690.371Z" transform="translate(809.858 -2683.124)"/></g><g transform="translate(-916.226 2723.073)"><path class="a" d="M-757.547,2861.195l-25.3-.009,12.657,21.926H-828.3l4.159-7.2h41.594l-8.491-14.714h-24.6l4.142-7.2,16.288-.008-12.36-21.2h8.317L-787,2854h17.1l-29.053-50.315h8.194Z" transform="translate(857.464 -2803.668)"/><path class="a" d="M-665.966,2977.056l-4.092,7.1-17.043.041-4.167-7.145Z" transform="translate(765.883 -2919.529)"/><path class="a" d="M-845.754,2897.069l4.225-7.1h-24.6l8.136-14.109-4.159-7.2-12.3,21.3h-16.989l20.8-36.025-4.167-7.2-29.044,50.333,25.307-.008L-891.2,2918.99l66.422,0,4.1-7.1h-58.109l8.556-14.821Z" transform="translate(907.955 -2832.446)"/><path class="a" d="M-757.469,2861.589h-8.317l8.557-14.819,4.159,7.2Z" transform="translate(815.684 -2832.463)"/><path class="a" d="M-828.661,2853.966h-8.313l-20.8-36.024-8.556,14.819,12.36,21.2-8.315.008-8.138-14.109-12.3,21.3-4.035-7.2,12.237-21.2-8.556-14.828-29.044,50.332-4.1-7.1,33.207-57.527,12.657,21.923,12.649-21.906Z" transform="translate(916.226 -2803.634)"/><path class="a" d="M-849.447,2962.559l-4.035-7.2-8.825.016-4.13,7.187Z" transform="translate(882.951 -2905.032)"/><path class="a" d="M-816.111,2803.634h8.194l8.558,14.808-4.095,7.115Z" transform="translate(849.317 -2803.634)"/><path class="a" d="M-724.47,2977.073l-4.225,7.1,4.406,7.618h8.309Z" transform="translate(790.896 -2919.546)"/><path class="a" d="M-873.961,3020.388l-4.093-7.1,8.555-14.825h8.2Z" transform="translate(890.715 -2933.844)"/></g></g></svg>