<svg xmlns="http://www.w3.org/2000/svg" width="115.009" height="132.402" viewBox="0 0 115.009 132.402"><defs><style>.a{fill:none;stroke:#c6c6c6;stroke-linecap:round;stroke-linejoin:round;stroke-width:2.5px;}</style></defs><g transform="translate(944.573 -2313.863)"><g transform="translate(-901.561 2363.307)"><path class="a" d="M-837.93,2420.048l-14.463,8.347,14.463,8.4,14.516-8.38Z" transform="translate(852.392 -2420.048)"/><path class="a" d="M-837.93,2446.624l-14.463-8.4v16.813l14.476,8.357Z" transform="translate(852.392 -2429.876)"/><path class="a" d="M-820.9,2446.648l.014,16.77,14.5-8.356v-16.794Z" transform="translate(835.365 -2429.9)"/></g><g transform="translate(-943.323 2315.112)"><path class="a" d="M-837.911,2521.326l7.842-4.521,7.841,4.521-7.841,4.522Z" transform="translate(886.324 -2424.172)"/><path class="a" d="M-883.273,2527.8l-.005,9.052-7.836,4.53,0-9.052Z" transform="translate(915.095 -2430.118)"/><path class="a" d="M-902.263,2516.846l-16.138-9.306-7.838,4.525,16.13,9.31Z" transform="translate(934.086 -2419.163)"/><path class="a" d="M-927.64,2461.63l-7.834-4.508-7.849,4.508,7.837,4.53Z" transform="translate(943.323 -2391.9)"/><path class="a" d="M-943.323,2494.622l0,.008,23.976,13.842,0-9.052-16.13-9.31-.009-18.644-7.837-4.53Z" transform="translate(943.323 -2397.208)"/><path class="a" d="M-918.413,2466.937v18.648l-7.838,4.525-.009-18.644Z" transform="translate(934.096 -2397.208)"/><path class="a" d="M-901.338,2500.772l8.751-5.052v-9.053l-16.586,9.587Z" transform="translate(924.858 -2407.875)"/><path class="a" d="M-909.17,2481.884l8.762-5.058,7.821,4.52-16.586,9.587Z" transform="translate(924.858 -2402.554)"/><path class="a" d="M-732.516,2461.644l7.842-4.521,7.841,4.521-7.837,4.53Z" transform="translate(829.335 -2391.9)"/><path class="a" d="M-732.516,2466.967l.01,18.628,7.838,4.525,0-18.624Z" transform="translate(829.335 -2397.224)"/><path class="a" d="M-767.656,2527.832l.013,9.038,7.828,4.543,0-9.052Z" transform="translate(848.336 -2430.135)"/><path class="a" d="M-726.607,2494.66l0-.008v-27.685l-7.837,4.53,0,18.624-16.141,9.33,0,9.052Z" transform="translate(839.104 -2397.224)"/><path class="a" d="M-767.656,2516.853l16.149-9.325,7.838,4.525-16.141,9.33Z" transform="translate(848.336 -2419.156)"/><path class="a" d="M-752.038,2481.885l-8.751-5.052-7.84,4.527,16.6,9.571Z" transform="translate(848.862 -2402.558)"/><path class="a" d="M-759.875,2500.781l-8.762-5.059,0-9.033,16.6,9.571Z" transform="translate(848.866 -2407.888)"/><path class="a" d="M-865.192,2358.834l-7.837-4.53,0-9.051,7.841,4.522Z" transform="translate(905.316 -2331.41)"/><path class="a" d="M-855.961,2353.193l16.128-9.323v-9.051l-16.128,9.314Z" transform="translate(896.084 -2325.768)"/><path class="a" d="M-785.68,2358.834l7.821-4.53.02-9.051-7.841,4.522Z" transform="translate(858.082 -2331.41)"/><path class="a" d="M-849.049,2315.112h-.009l-23.976,13.843,7.841,4.522,16.128-9.314,16.15,9.314,7.841-4.522Z" transform="translate(905.316 -2315.112)"/><path class="a" d="M-804.694,2353.193l-16.15-9.323v-9.051l16.15,9.314Z" transform="translate(877.096 -2325.768)"/><path class="a" d="M-837.9,2359.052v10.1l7.84,4.527-.009-19.157Z" transform="translate(886.316 -2336.424)"/><path class="a" d="M-813.01,2359.052v10.117l-7.825,4.514-.009-19.157Z" transform="translate(877.096 -2336.424)"/><path class="a" d="M-849.609,2531.173l-7.831-4.521v19.17l-16.607-9.59.005,9.066,24.433,14.1,0-18.1,0,0Z" transform="translate(905.864 -2429.497)"/><path class="a" d="M-866.214,2537.663l-7.834,4.523,16.607,9.59v-9.053Z" transform="translate(905.864 -2435.451)"/><path class="a" d="M-820.841,2531.173l7.831-4.521v19.17l16.607-9.59-.005,9.066-24.433,14.1,0-18.1,0,0Z" transform="translate(877.096 -2429.497)"/><path class="a" d="M-795.013,2537.663l7.834,4.523-16.607,9.59v-9.053Z" transform="translate(867.872 -2435.451)"/><path class="a" d="M-760.808,2420.267l-7.837-4.531,0-9.051,7.837,4.53Z" transform="translate(848.873 -2364.628)"/><path class="a" d="M-751.586,2399.933v9.042l16.6-9.585,0,19.177,7.849-4.537,0-28.21-15.68,9.049v0Z" transform="translate(839.646 -2353.345)"/><path class="a" d="M-732.5,2430.021l7.834,4.523,0-19.177-7.84,4.527Z" transform="translate(829.331 -2369.323)"/><path class="a" d="M-760.814,2383.322l-7.831-4.521,16.6-9.585-16.609-9.587,7.854-4.529,24.429,14.109-15.677,9.055,0,0Z" transform="translate(848.874 -2336.735)"/><path class="a" d="M-768.652,2374.006v-9.045l16.609,9.586-7.84,4.527Z" transform="translate(848.874 -2342.066)"/><path class="a" d="M-882.258,2406.686l-.005,9.052-7.836,4.53,0-9.052Z" transform="translate(914.544 -2364.628)"/><path class="a" d="M-918.869,2383.322l7.831-4.521-16.6-9.585,16.609-9.587-7.854-4.529-24.429,14.109,15.677,9.055,0,0Z" transform="translate(943.318 -2336.735)"/><path class="a" d="M-892.578,2374.006v-9.045l-16.609,9.587,7.84,4.526Z" transform="translate(924.865 -2342.066)"/><path class="a" d="M-918.874,2399.933v9.043l-16.6-9.585,0,19.177-7.849-4.537,0-28.21,15.68,9.049v0Z" transform="translate(943.323 -2353.345)"/><path class="a" d="M-918.4,2430.021l-7.834,4.523,0-19.177,7.84,4.527Z" transform="translate(934.084 -2369.323)"/></g></g></svg>