<svg xmlns="http://www.w3.org/2000/svg" width="101" height="103" viewBox="0 0 101 103"><defs><style>.a{fill:none;stroke:#0ca6e4;stroke-linecap:round;stroke-linejoin:round;stroke-width:3px;}</style></defs><g transform="translate(-93.532 -99.616)"><path class="a" d="M112,118.468a39.5,39.5,0,0,0-16.961,30.615c1.012-26,21.48-46.884,46.962-47.917.661-.033,1.327-.049,1.993-.049s1.327.016,1.988.049a38.345,38.345,0,0,1,30,17.3,40.012,40.012,0,0,1,5.217,32.648,39.168,39.168,0,0,1-15.586,22.066,37.674,37.674,0,0,1-20.105,6.743,28.57,28.57,0,0,0,26.713-27.259c.016-.517.032-1.033.032-1.55s-.016-1.033-.032-1.55a39.427,39.427,0,0,0-6.608-20.517A38.428,38.428,0,0,0,144,113.15a37.412,37.412,0,0,0-10.37-1.452A37.813,37.813,0,0,0,112,118.468Z" transform="translate(0.039)"/><path class="a" d="M112.041,109.832A39.5,39.5,0,0,0,95.08,140.447c-.032.68-.048,1.354-.048,2.034s.016,1.354.048,2.034c1.012,26,21.48,46.89,46.962,47.917a38.353,38.353,0,0,1-30-17.3,40.011,40.011,0,0,1-5.217-32.648,39.167,39.167,0,0,1,15.586-22.066,37.688,37.688,0,0,1,20.105-6.743c.506-.016,1.012-.033,1.519-.033s1.007.016,1.513.033a28.57,28.57,0,0,1,26.713,27.259,39.427,39.427,0,0,0-6.608-20.517,38.428,38.428,0,0,0-21.619-15.9,37.411,37.411,0,0,0-10.37-1.452A37.812,37.812,0,0,0,112.041,109.832Z" transform="translate(0 8.636)"/><path class="a" d="M113.987,111.756A39.167,39.167,0,0,0,98.4,133.822a40.011,40.011,0,0,0,5.217,32.648,38.353,38.353,0,0,0,30,17.3c.661.033,1.327.049,1.993.049s1.327-.016,1.988-.049c25.482-1.028,45.949-21.92,46.962-47.917A39.5,39.5,0,0,1,167.6,166.47a37.813,37.813,0,0,1-21.624,6.77,37.373,37.373,0,0,1-10.364-1.452,38.422,38.422,0,0,1-21.624-15.9,39.427,39.427,0,0,1-6.608-20.517c-.016-.517-.032-1.033-.032-1.55s.016-1.033.032-1.55a28.574,28.574,0,0,1,26.713-27.259A37.688,37.688,0,0,0,113.987,111.756Z" transform="translate(8.424 17.294)"/><path class="a" d="M125.643,179.885A28.574,28.574,0,0,1,98.93,152.626a39.428,39.428,0,0,0,6.608,20.517,38.422,38.422,0,0,0,21.624,15.9,37.372,37.372,0,0,0,10.364,1.452,37.813,37.813,0,0,0,21.624-6.77,39.5,39.5,0,0,0,16.961-30.615c.032-.68.048-1.354.048-2.034s-.016-1.354-.048-2.034c-1.012-26-21.48-46.884-46.962-47.917a38.345,38.345,0,0,1,30,17.3,40.012,40.012,0,0,1,5.217,32.648,39.168,39.168,0,0,1-15.586,22.066,37.674,37.674,0,0,1-20.105,6.743c-.506.016-1.007.033-1.513.033S126.149,179.9,125.643,179.885Z" transform="translate(16.873 0.04)"/></g></svg>