<svg xmlns="http://www.w3.org/2000/svg" width="101" height="94.399" viewBox="0 0 101 94.399"><defs><style>.a{fill:none;stroke:#0ca6e4;stroke-linecap:round;stroke-linejoin:round;stroke-width:3px;}</style></defs><g transform="translate(-65.211 -125.523)"><path class="a" d="M73.327,136.191l7.539,13.057h30.149l-7.535-13.058Z" transform="translate(31.077 43.059)"/><path class="a" d="M86.16,181.54l22.616-39.169-7.537-13.055L78.62,168.485Z" transform="translate(55.935 10.766)"/><path class="a" d="M89.726,166.191l7.537-13.057-15.075-26.11L74.65,140.08Z" transform="translate(37.29 0.002)"/><path class="a" d="M119.478,127.025l-45.23,0-7.537,13.055,45.229,0Z" transform="translate(0 0)"/><path class="a" d="M98.185,131.607H83.108l-15.074,26.11H83.109Z" transform="translate(6.218 21.532)"/><path class="a" d="M68.034,136.191l22.613,39.172h15.077L83.11,136.191Z" transform="translate(6.216 43.059)"/><path class="a" d="M95.94,155.428H80.864l-7.536,13.055,30.15,0,22.615-39.171H95.938l7.539,13.054Z" transform="translate(31.077 10.766)"/><path class="a" d="M104.4,142.373l7.539,13.056h15.074l-15.075-26.113-45.226,0,15.075,26.113,7.536-13.058Z" transform="translate(0.003 10.765)"/><path class="a" d="M85.759,157.718,93.3,144.661l-7.538-13.053L70.68,157.718,93.3,196.885l15.077-26.114-15.077,0Z" transform="translate(18.645 21.533)"/></g></svg>