<svg xmlns="http://www.w3.org/2000/svg" width="101" height="99.996" viewBox="0 0 101 99.996"><defs><style>.a{fill:none;stroke:#0ca6e4;stroke-linecap:round;stroke-linejoin:round;stroke-width:3px;}</style></defs><g transform="translate(-34.936 -123.75)"><path class="a" d="M42.961,144.428V128.264l7,4.04v8.083Z" transform="translate(28.475 13.152)"/><path class="a" d="M63.486,130.8l-14,8.082V130.8l7-4.041Z" transform="translate(56.95 6.576)"/><path class="a" d="M39.046,130.8l14,8.082V130.8l-7-4.041Z" transform="translate(11.39 6.576)"/><path class="a" d="M53.877,144.428V128.264l-7,4.04v8.083Z" transform="translate(45.559 13.152)"/><path class="a" d="M76.656,125.25l-14,8.083-14-8.083-7,4.041,21,12.126h0l21-12.126Z" transform="translate(22.78)"/><path class="a" d="M80.571,134.086v8.084l-21,12.123V138.128l-14,8.083v-8.082l21-12.126v16.165Z" transform="translate(39.865 3.288)"/><path class="a" d="M39.046,134.086v8.084l21,12.123V138.128l14,8.083v-8.082L53.047,126v16.165Z" transform="translate(11.391 3.288)"/><path class="a" d="M55.656,141.348l-14,8.083v-8.084l7-4.041Z" transform="translate(22.779 52.608)"/><path class="a" d="M36.436,132.031l14,8.084-7,4.041-7-4.042Z" transform="translate(0 29.593)"/><path class="a" d="M48.656,156.486V140.319l-7,4.041v8.083Z" transform="translate(22.78 65.761)"/><path class="a" d="M53.045,133.538l-14,8.083,7,4.042,7-4.042Z" transform="translate(11.39 36.169)"/><path class="a" d="M36.436,143.128l14,8.082v16.166l7,4.043V147.169h0l-21-12.124Z" transform="translate(0 42.745)"/><path class="a" d="M36.436,135.319l7-4.042,21,12.124-14,8.083,14,8.083-7,4.041-21-12.124,14-8.082Z" transform="translate(0 26.305)"/><path class="a" d="M54.351,172.925l7-4.042V144.635l-14,8.083V136.552l-7,4.042v24.248l14-8.083Z" transform="translate(17.085 49.32)"/><path class="a" d="M46.876,141.348l14,8.083v-8.084l-7-4.041Z" transform="translate(45.561 52.608)"/><path class="a" d="M66.1,132.031l-14,8.084,7,4.041,7-4.042Z" transform="translate(68.339 29.593)"/><path class="a" d="M48.181,156.486V140.319l7,4.041v8.083Z" transform="translate(51.255 65.761)"/><path class="a" d="M49.487,133.538l14,8.083-7,4.042-7-4.042Z" transform="translate(56.95 36.169)"/><path class="a" d="M71.792,143.128l-14,8.082v16.166l-7,4.043V147.169h0l21-12.124Z" transform="translate(62.644 42.745)"/><path class="a" d="M77.486,135.319l-7-4.042-21,12.124,14,8.083-14,8.083,7,4.041,21-12.124-14-8.082Z" transform="translate(56.95 26.305)"/><path class="a" d="M53.877,172.925l-7-4.042,0-24.248,14,8.083V136.552l7,4.042v24.248l-14-8.083Z" transform="translate(45.559 49.32)"/></g></svg>